<?xml version="1.0" encoding="utf-8"?>
<!-- Generator: Adobe Illustrator 27.5.0, SVG Export Plug-In . SVG Version: 6.00 Build 0)  -->
<svg version="1.1" xmlns="http://www.w3.org/2000/svg" xmlns:xlink="http://www.w3.org/1999/xlink" x="0px" y="0px"
	 viewBox="0 0 2475 1650" style="enable-background:new 0 0 2475 1650;" xml:space="preserve">
<g id="Background">
	<rect style="fill:#FFFFFF;" width="2475" height="1650"/>
</g>
<g id="Illustration">
	<g>
		<linearGradient id="SVGID_1_" gradientUnits="userSpaceOnUse" x1="154" y1="846.7859" x2="2321" y2="846.7859">
			<stop  offset="0" style="stop-color:#DAE3FE"/>
			<stop  offset="1" style="stop-color:#E9EFFD"/>
		</linearGradient>
		<path style="fill:url(#SVGID_1_);" d="M2259.684,913.174c-37.571-37.543-82-74.159-93.587-125.132
			c-20.049-88.206,65.681-163.416,93.745-249.564c19.405-59.568,9.394-127.389-26.477-179.363
			c-35.87-51.974-96.871-87.045-161.325-92.75c-110.901-9.816-219.432,62.275-328.675,41.397
			c-87.471-16.717-156.594-90.463-245.389-98.363c-104.486-9.296-191.18,73.913-290.958,105.242
			c-119.346,37.473-248.74-1.689-366.077-44.664c-117.336-42.975-240.79-90.922-364.474-70.355
			C338.793,222.518,223.36,338.249,204.947,471.848c-18.249,132.402,134.8,238.686,4.519,397.664
			c-40.713,49.681-67.794,118.852-49.796,179.756c17.488,59.177,91.904,96.604,92.445,158.136
			c0.427,48.576-47.049,87.226-50.873,135.663c-3.283,41.576,27.712,80.012,65.803,99.715
			c38.091,19.703,82.286,24.522,125.259,28.988l-12.667,13.137c216.448,18.743,434.245,14.571,651.52,10.383
			c342.645-6.605,685.291-13.21,1027.936-19.815c35.215-0.679,71.286-1.514,104.097-13.868
			c32.812-12.354,62.241-38.797,67.238-72.432c8.506-57.242-53.516-106.919-47.784-164.482
			c7.318-73.502,114.607-101.86,135.023-173.026C2332.095,1001.376,2297.255,950.717,2259.684,913.174z"/>
		<g>
			
				<linearGradient id="SVGID_00000091733463152357763720000000604813912359895170_" gradientUnits="userSpaceOnUse" x1="1855.7937" y1="783.7436" x2="2109.2903" y2="783.7436">
				<stop  offset="0" style="stop-color:#2B3582"/>
				<stop  offset="1" style="stop-color:#150E42"/>
			</linearGradient>
			<path style="fill:url(#SVGID_00000091733463152357763720000000604813912359895170_);" d="M1860.76,890.958
				c-2.645,0-4.83-2.102-4.913-4.766c-0.059-1.917-1.299-47.527,12.362-96.237c18.37-65.509,55.178-104.328,106.442-112.262
				c25.368-3.926,47.928,2.08,67.06,17.847c25.957,21.392,45.22,60.013,57.255,114.788c8.877,40.404,10.307,75.176,10.321,75.522
				c0.106,2.714-2.009,4.998-4.723,5.104c-2.72,0.069-5-2.009-5.105-4.724c-0.053-1.347-5.922-135.247-64.012-183.108
				c-16.873-13.901-36.821-19.188-59.292-15.709c-47.845,7.404-80.978,42.798-98.477,105.197
				c-13.256,47.27-12.014,92.822-11.999,93.278c0.083,2.714-2.049,4.983-4.763,5.068
				C1860.864,890.958,1860.812,890.958,1860.76,890.958z"/>
			
				<linearGradient id="SVGID_00000140016045845473639780000015088970787631240097_" gradientUnits="userSpaceOnUse" x1="2868.7671" y1="936.1055" x2="1495.4329" y2="1294.1702">
				<stop  offset="0" style="stop-color:#4042E2"/>
				<stop  offset="1" style="stop-color:#4F52FF"/>
			</linearGradient>
			<path style="fill:url(#SVGID_00000140016045845473639780000015088970787631240097_);" d="M1634.464,1469.597l92.313-625.83
				l346.786-5.732l111.774,666.345h-520.845C1645.965,1504.38,1631.76,1487.926,1634.464,1469.597z"/>
			
				<linearGradient id="SVGID_00000129200293842966762100000014674615122610860678_" gradientUnits="userSpaceOnUse" x1="2191.5869" y1="1135.5535" x2="1944.5006" y2="1520.8899">
				<stop  offset="0" style="stop-color:#4042E2"/>
				<stop  offset="1" style="stop-color:#4F52FF"/>
			</linearGradient>
			<path style="fill:url(#SVGID_00000129200293842966762100000014674615122610860678_);" d="M2140.914,843.767l-67.351-5.732
				l111.774,666.345h66.863c13.556,0,23.688-12.458,20.924-25.73L2140.914,843.767z"/>
			
				<linearGradient id="SVGID_00000039830301669399436170000011651775010183594942_" gradientUnits="userSpaceOnUse" x1="1781.2775" y1="782.3109" x2="2034.7739" y2="782.3109">
				<stop  offset="0" style="stop-color:#2B3582"/>
				<stop  offset="1" style="stop-color:#150E42"/>
			</linearGradient>
			<path style="fill:url(#SVGID_00000039830301669399436170000011651775010183594942_);" d="M1786.244,889.525
				c-2.645,0-4.83-2.102-4.913-4.766c-0.059-1.917-1.299-47.527,12.362-96.237c18.37-65.509,55.178-104.328,106.442-112.262
				c25.368-3.924,47.928,2.08,67.06,17.847c25.957,21.392,45.22,60.013,57.255,114.788c8.877,40.404,10.307,75.176,10.321,75.522
				c0.106,2.714-2.009,4.998-4.723,5.104c-2.744,0.056-4.999-2.009-5.105-4.724c-0.053-1.347-5.922-135.247-64.012-183.108
				c-16.873-13.901-36.821-19.19-59.291-15.709c-47.845,7.404-80.977,42.798-98.477,105.197c-13.256,47.27-12.014,92.822-12,93.278
				c0.084,2.714-2.049,4.983-4.763,5.068C1786.347,889.525,1786.296,889.525,1786.244,889.525z"/>
		</g>
		<g>
			<g>
				
					<linearGradient id="SVGID_00000077297960314033519560000010834829195067710852_" gradientUnits="userSpaceOnUse" x1="-6586.3003" y1="825" x2="-5698.7607" y2="825" gradientTransform="matrix(-1 0 0 1 -4896.8052 0)">
					<stop  offset="0" style="stop-color:#09005D"/>
					<stop  offset="1" style="stop-color:#1A0F91"/>
				</linearGradient>
				<path style="fill:url(#SVGID_00000077297960314033519560000010834829195067710852_);" d="M1674.977,203.543
					c4.673,220.51,19.828,981.131,12.593,1250.672c-0.767,28.555-20.335,51.474-44.743,52.409
					c-120.723,4.621-563.29,16.335-760.753,6.644c-41.129-2.019-73.836-40.992-74.689-89.138
					c-4.103-231.453-13.156-882.443,8.361-1180.662c2.579-35.731,26.552-64.185,57.051-67.755
					c131.474-15.386,575.943-52.997,746.54-40.046C1650.104,138.003,1674.213,167.485,1674.977,203.543z"/>
				
					<linearGradient id="SVGID_00000007430908853852780230000011861540819262110892_" gradientUnits="userSpaceOnUse" x1="-5913.4312" y1="472.1808" x2="-7741.4209" y2="2810.6304" gradientTransform="matrix(-1 0 0 1 -4896.8052 0)">
					<stop  offset="0" style="stop-color:#FE7062"/>
					<stop  offset="1" style="stop-color:#FF928E"/>
				</linearGradient>
				<path style="fill:url(#SVGID_00000007430908853852780230000011861540819262110892_);" d="M1621.11,271.197
					c6.498,177.984,26.995,770.096,20.489,989.046c-0.95,32.003-22.511,57.879-49.837,59.75
					c-112.509,7.702-496.36,24.685-661.383,9.227c-29.715-2.784-53.033-30.897-54.637-65.721
					c-8.362-181.58-32.373-732.919-26.138-949.416c0.996-34.537,23.864-62.743,53.285-65.833
					c121.716-12.785,529.602-43.204,669.833-34.253C1599.048,215.677,1619.986,240.383,1621.11,271.197z"/>
				<path style="fill:#7D97F4;" d="M1323.644,185.234L1323.644,185.234c0,6.766-4.507,12.347-10.283,12.7
					c-28.514,1.747-108.839,6.69-144.738,9.126c-7.077,0.481-12.633-6.962-11.291-15.107l0.23-1.389
					c0.917-5.557,4.856-9.74,9.673-10.256c24.266-2.601,97.486-9.814,145.999-7.788
					C1319.061,172.764,1323.644,178.413,1323.644,185.234z"/>
				<g>
					<defs>
						<path id="SVGID_00000023260856267734365110000006625060834890547858_" d="M1621.11,271.197
							c6.498,177.984,26.995,770.096,20.489,989.046c-0.95,32.003-22.511,57.879-49.837,59.75
							c-112.509,7.702-496.36,24.685-661.383,9.227c-29.715-2.784-53.033-30.897-54.637-65.721
							c-8.362-181.58-32.373-732.919-26.138-949.416c0.996-34.537,23.864-62.743,53.285-65.833
							c121.716-12.785,529.602-43.204,669.833-34.253C1599.048,215.677,1619.986,240.383,1621.11,271.197z"/>
					</defs>
					<clipPath id="SVGID_00000091002906413164906320000010385782900921023905_">
						<use xlink:href="#SVGID_00000023260856267734365110000006625060834890547858_"  style="overflow:visible;"/>
					</clipPath>
					
						<linearGradient id="SVGID_00000144336657100257615680000010683004505938288006_" gradientUnits="userSpaceOnUse" x1="1221.943" y1="381.677" x2="1250.3354" y2="66.2076">
						<stop  offset="0" style="stop-color:#A737D5"/>
						<stop  offset="1" style="stop-color:#EF497A"/>
					</linearGradient>
					
						<rect x="734.915" y="108.719" style="clip-path:url(#SVGID_00000091002906413164906320000010385782900921023905_);fill:url(#SVGID_00000144336657100257615680000010683004505938288006_);" width="1002.131" height="233.978"/>
				</g>
				<g>
					
						<linearGradient id="SVGID_00000158730312444420004660000007080586372830466734_" gradientUnits="userSpaceOnUse" x1="1317.3711" y1="364.4681" x2="802.8546" y2="911.5778">
						<stop  offset="0" style="stop-color:#FF928E"/>
						<stop  offset="1" style="stop-color:#FEB3B1"/>
					</linearGradient>
					<path style="fill:url(#SVGID_00000158730312444420004660000007080586372830466734_);" d="M1217.653,810.652H922.472
						c-8.7,0-15.752-7.053-15.752-15.752V459.987c0-8.7,7.052-15.752,15.752-15.752h295.181c8.7,0,15.752,7.052,15.752,15.752V794.9
						C1233.405,803.6,1226.353,810.652,1217.653,810.652z"/>
					
						<linearGradient id="SVGID_00000089569274749946854570000008332016177941575323_" gradientUnits="userSpaceOnUse" x1="1118.8309" y1="743.9614" x2="742.1824" y2="1225.7876">
						<stop  offset="0" style="stop-color:#E1473D"/>
						<stop  offset="1" style="stop-color:#E9605A"/>
					</linearGradient>
					<path style="fill:url(#SVGID_00000089569274749946854570000008332016177941575323_);" d="M1222.48,852.591H917.644
						c-7.253,0-13.132-5.879-13.132-13.132v-70.747h331.1v70.747C1235.612,846.712,1229.733,852.591,1222.48,852.591z"/>
					
						<linearGradient id="SVGID_00000064348314498161764970000007790766948498250418_" gradientUnits="userSpaceOnUse" x1="943.1404" y1="811.7559" x2="1196.9841" y2="811.7559">
						<stop  offset="0" style="stop-color:#FF928E"/>
						<stop  offset="1" style="stop-color:#FEB3B1"/>
					</linearGradient>
					<path style="fill:url(#SVGID_00000064348314498161764970000007790766948498250418_);" d="M1190.484,826.104H949.64
						c-3.59,0-6.5-2.91-6.5-6.5v-15.695c0-3.59,2.91-6.5,6.5-6.5h240.844c3.59,0,6.5,2.91,6.5,6.5v15.695
						C1196.984,823.193,1194.074,826.104,1190.484,826.104z"/>
				</g>
				<g>
					
						<linearGradient id="SVGID_00000033327721287547216760000005982017579909827763_" gradientUnits="userSpaceOnUse" x1="1677.1669" y1="364.4682" x2="1162.6505" y2="911.5778">
						<stop  offset="0" style="stop-color:#FF928E"/>
						<stop  offset="1" style="stop-color:#FEB3B1"/>
					</linearGradient>
					<path style="fill:url(#SVGID_00000033327721287547216760000005982017579909827763_);" d="M1577.448,810.652h-295.181
						c-8.7,0-15.752-7.053-15.752-15.752V459.987c0-8.7,7.052-15.752,15.752-15.752h295.181c8.7,0,15.752,7.053,15.752,15.752V794.9
						C1593.201,803.6,1586.148,810.652,1577.448,810.652z"/>
					
						<linearGradient id="SVGID_00000069398666200833574960000013585408857198445459_" gradientUnits="userSpaceOnUse" x1="1478.6267" y1="743.9613" x2="1101.978" y2="1225.7877">
						<stop  offset="0" style="stop-color:#E1473D"/>
						<stop  offset="1" style="stop-color:#E9605A"/>
					</linearGradient>
					<path style="fill:url(#SVGID_00000069398666200833574960000013585408857198445459_);" d="M1582.276,852.591H1277.44
						c-7.252,0-13.132-5.879-13.132-13.132v-70.747h331.1v70.747C1595.408,846.712,1589.529,852.591,1582.276,852.591z"/>
					
						<linearGradient id="SVGID_00000057125957485013377860000014554792025405051327_" gradientUnits="userSpaceOnUse" x1="1302.9362" y1="811.7559" x2="1556.7797" y2="811.7559">
						<stop  offset="0" style="stop-color:#FF928E"/>
						<stop  offset="1" style="stop-color:#FEB3B1"/>
					</linearGradient>
					<path style="fill:url(#SVGID_00000057125957485013377860000014554792025405051327_);" d="M1550.28,826.104h-240.844
						c-3.59,0-6.5-2.91-6.5-6.5v-15.695c0-3.59,2.91-6.5,6.5-6.5h240.844c3.59,0,6.5,2.91,6.5,6.5v15.695
						C1556.78,823.193,1553.87,826.104,1550.28,826.104z"/>
				</g>
				<g>
					
						<linearGradient id="SVGID_00000044894482916148122180000016829469286886668939_" gradientUnits="userSpaceOnUse" x1="1317.371" y1="799.3134" x2="802.8547" y2="1346.423">
						<stop  offset="0" style="stop-color:#FF928E"/>
						<stop  offset="1" style="stop-color:#FEB3B1"/>
					</linearGradient>
					<path style="fill:url(#SVGID_00000044894482916148122180000016829469286886668939_);" d="M1217.653,1245.497H922.472
						c-8.7,0-15.752-7.053-15.752-15.752V894.832c0-8.7,7.052-15.752,15.752-15.752h295.181c8.7,0,15.752,7.052,15.752,15.752
						v334.913C1233.405,1238.445,1226.353,1245.497,1217.653,1245.497z"/>
					
						<linearGradient id="SVGID_00000002368896366553127190000018338667326602598297_" gradientUnits="userSpaceOnUse" x1="1118.8309" y1="1178.8065" x2="742.1823" y2="1660.6329">
						<stop  offset="0" style="stop-color:#E1473D"/>
						<stop  offset="1" style="stop-color:#E9605A"/>
					</linearGradient>
					<path style="fill:url(#SVGID_00000002368896366553127190000018338667326602598297_);" d="M1222.48,1287.437H917.644
						c-7.253,0-13.132-5.879-13.132-13.132v-70.747h331.1v70.747C1235.612,1281.557,1229.733,1287.437,1222.48,1287.437z"/>
					
						<linearGradient id="SVGID_00000056392305979895093920000014166467905696810160_" gradientUnits="userSpaceOnUse" x1="943.1404" y1="1246.601" x2="1196.9841" y2="1246.601">
						<stop  offset="0" style="stop-color:#FF928E"/>
						<stop  offset="1" style="stop-color:#FEB3B1"/>
					</linearGradient>
					<path style="fill:url(#SVGID_00000056392305979895093920000014166467905696810160_);" d="M1190.484,1260.949H949.64
						c-3.59,0-6.5-2.91-6.5-6.5v-15.695c0-3.59,2.91-6.5,6.5-6.5h240.844c3.59,0,6.5,2.91,6.5,6.5v15.695
						C1196.984,1258.038,1194.074,1260.949,1190.484,1260.949z"/>
				</g>
				<g>
					
						<linearGradient id="SVGID_00000155139384088797327880000011034036597580697230_" gradientUnits="userSpaceOnUse" x1="1677.1667" y1="799.3135" x2="1162.6505" y2="1346.423">
						<stop  offset="0" style="stop-color:#FF928E"/>
						<stop  offset="1" style="stop-color:#FEB3B1"/>
					</linearGradient>
					<path style="fill:url(#SVGID_00000155139384088797327880000011034036597580697230_);" d="M1577.449,1245.497h-295.181
						c-8.7,0-15.752-7.053-15.752-15.752V894.832c0-8.7,7.052-15.752,15.752-15.752h295.181c8.7,0,15.752,7.053,15.752,15.752
						v334.913C1593.201,1238.445,1586.148,1245.497,1577.449,1245.497z"/>
					
						<linearGradient id="SVGID_00000116203507676801357210000009067735853900531345_" gradientUnits="userSpaceOnUse" x1="1478.6267" y1="1178.8065" x2="1101.9778" y2="1660.6332">
						<stop  offset="0" style="stop-color:#E1473D"/>
						<stop  offset="1" style="stop-color:#E9605A"/>
					</linearGradient>
					<path style="fill:url(#SVGID_00000116203507676801357210000009067735853900531345_);" d="M1582.276,1287.437h-304.837
						c-7.252,0-13.132-5.879-13.132-13.132v-70.747h331.1v70.747C1595.408,1281.557,1589.529,1287.437,1582.276,1287.437z"/>
					
						<linearGradient id="SVGID_00000162349205714187127570000016617819938301559955_" gradientUnits="userSpaceOnUse" x1="1302.9362" y1="1246.601" x2="1556.7797" y2="1246.601">
						<stop  offset="0" style="stop-color:#FF928E"/>
						<stop  offset="1" style="stop-color:#FEB3B1"/>
					</linearGradient>
					<path style="fill:url(#SVGID_00000162349205714187127570000016617819938301559955_);" d="M1550.28,1260.949h-240.844
						c-3.59,0-6.5-2.91-6.5-6.5v-15.695c0-3.59,2.91-6.5,6.5-6.5h240.844c3.59,0,6.5,2.91,6.5,6.5v15.695
						C1556.78,1258.038,1553.87,1260.949,1550.28,1260.949z"/>
				</g>
			</g>
			<g style="opacity:0.67;">
				<g>
					<path style="fill:#FFFFFF;" d="M1187.381,1030.461c21.893-26.521,20.441-65.839-4.372-90.652
						c-24.813-24.813-64.131-26.265-90.652-4.372L1187.381,1030.461z"/>
					<path style="fill:#FFFFFF;" d="M1082.532,945.413c-21.227,26.507-19.567,65.299,5.004,89.869
						c24.571,24.571,63.363,26.231,89.869,5.004L1082.532,945.413z"/>
				</g>
				<path style="fill:#FFFFFF;" d="M1082.874,1057.495l-17.551-17.551c-1.207-1.207-1.207-3.164,0-4.371l4.822-4.824
					c1.207-1.207,3.164-1.207,4.371,0l17.554,17.554c1.207,1.207,1.207,3.164,0,4.371l-4.823,4.822
					C1086.038,1058.702,1084.081,1058.702,1082.874,1057.495z"/>
				<path style="fill:#FFFFFF;" d="M1070.562,1052.255L1070.562,1052.255c-3.633-3.633-9.432-3.913-13.398-0.646l-91.159,75.096
					c-9.744,8.027-10.452,22.704-1.525,31.632l0,0c8.927,8.927,23.604,8.22,31.632-1.525l75.096-91.159
					C1074.475,1061.688,1074.196,1055.889,1070.562,1052.255z"/>
			</g>
			<g style="opacity:0.67;">
				<path style="fill:#FFFFFF;" d="M1443.125,1022.114l-2.539,2.539c-4.73,4.73-4.73,12.4,0,17.13l8.33,8.33
					c4.73,4.73,12.4,4.73,17.13,0l2.539-2.539c13.114-13.115,30.322-21.495,48.787-23.235c12.54-1.182,25.167-6.872,35.229-16.934
					c21.287-21.287,23.028-54.058,3.89-73.196c-19.139-19.139-51.91-17.397-73.196,3.89c-10.063,10.062-15.752,22.689-16.934,35.229
					C1464.62,991.792,1456.24,1009,1443.125,1022.114z"/>
				<path style="fill:#FFFFFF;" d="M1485.202,1141.561l-135.887-135.887c-1.534-1.534-4.021-1.534-5.555,0l-2.932,2.932
					c-1.534,1.534-1.534,4.021,0,5.555l41.983,41.983c-19.816-3.498-40.977,2.375-56.253,17.651c-24.86,24.86-24.86,65.31,0,90.17
					c24.86,24.86,65.31,24.86,90.17,0c15.276-15.276,21.149-36.438,17.651-56.253l42.337,42.337c1.534,1.534,4.021,1.534,5.555,0
					l2.932-2.932C1486.736,1145.582,1486.736,1143.095,1485.202,1141.561z M1408.241,1155.477c-20.18,20.181-53.016,20.181-73.196,0
					c-20.18-20.18-20.18-53.016,0-73.196c20.18-20.18,53.016-20.18,73.196,0C1428.422,1102.461,1428.422,1135.297,1408.241,1155.477
					z"/>
				<path style="fill:#FFFFFF;" d="M1365.846,1013.718l111.135,111.135c1.534,1.534,4.021,1.534,5.555,0
					c1.276-1.277,1.519-3.259,0.587-4.805l-30.344-50.352c-0.165-0.273-0.362-0.525-0.587-0.75l-30.439-30.439
					c-0.225-0.225-0.477-0.422-0.75-0.587l-50.352-30.344c-1.546-0.932-3.528-0.69-4.805,0.587
					C1364.312,1009.697,1364.312,1012.184,1365.846,1013.718z"/>
			</g>
			<g style="opacity:0.67;">
				<path style="fill:#FFFFFF;" d="M1428.044,744.022c-37.111,0-68.956-9.709-92.09-28.076
					c-25.468-20.22-38.929-50.111-38.929-86.441c0-75.158,57.232-162.524,131.019-162.524c73.787,0,131.019,87.367,131.019,162.524
					c0,36.331-13.462,66.222-38.929,86.441C1497,734.313,1465.156,744.022,1428.044,744.022z M1428.044,479.982
					c-30.058,0-59.483,17.076-82.857,48.082c-22.016,29.206-35.16,67.128-35.16,101.44c0,74.847,60.964,101.515,118.017,101.515
					c57.053,0,118.017-26.668,118.017-101.515c0-34.313-13.144-72.234-35.161-101.44
					C1487.527,497.058,1458.101,479.982,1428.044,479.982z M1428.545,592.999c-37.501,0-68.01-24.901-68.01-55.508
					c0-30.608,30.51-55.508,68.01-55.508s68.01,24.901,68.01,55.508C1496.555,568.098,1466.045,592.999,1428.545,592.999z
					 M1428.545,494.984c-30.332,0-55.008,19.068-55.008,42.506s24.676,42.506,55.008,42.506c30.332,0,55.008-19.068,55.008-42.506
					S1458.876,494.984,1428.545,494.984z"/>
				<g>
					<path style="fill:#FFFFFF;" d="M1440.317,662.897c0,6.778-5.495,12.272-12.272,12.272s-12.272-5.494-12.272-12.272
						c0-6.778,5.495-12.272,12.272-12.272S1440.317,656.119,1440.317,662.897z"/>
					<path style="fill:#FFFFFF;" d="M1443.823,624.327c0,12.345-7.064,24.983-15.779,24.983s-15.779-12.638-15.779-24.983
						c0-12.345,7.064-19.723,15.779-19.723S1443.823,611.982,1443.823,624.327z"/>
					<path style="fill:#FFFFFF;" d="M1395.355,639.189c11.741,3.815,21.577,14.439,18.884,22.726
						c-2.693,8.288-16.895,11.101-28.636,7.286c-11.741-3.815-16.575-12.813-13.882-21.101
						C1374.415,639.813,1383.615,635.374,1395.355,639.189z"/>
					<path style="fill:#FFFFFF;" d="M1395.325,687.307c7.256-9.988,20.4-16.059,27.45-10.937c7.05,5.122,5.337,19.499-1.919,29.486
						c-7.256,9.987-17.308,11.804-24.358,6.682C1389.447,707.416,1388.069,697.295,1395.325,687.307z"/>
					<path style="fill:#FFFFFF;" d="M1438.74,704.103c-7.256-9.987-8.969-24.364-1.919-29.486c7.05-5.122,20.193,0.95,27.45,10.937
						c7.256,9.987,5.878,20.109-1.172,25.231C1456.048,715.907,1445.996,714.091,1438.74,704.103z"/>
					<path style="fill:#FFFFFF;" d="M1470.485,666.571c-11.741,3.815-25.943,1.002-28.636-7.286
						c-2.693-8.288,7.143-18.912,18.884-22.727c11.741-3.815,20.941,0.624,23.634,8.912
						C1487.06,653.758,1482.226,662.757,1470.485,666.571z"/>
				</g>
			</g>
			<g>
				<g>
					<polygon style="fill:#91B3FA;" points="932.73,228.033 888.332,426.727 1042.55,427.004 1064.435,225.122 					"/>
					
						<linearGradient id="SVGID_00000016073173396819151600000004761964587325804682_" gradientUnits="userSpaceOnUse" x1="794.4618" y1="418.805" x2="812.1104" y2="-131.255">
						<stop  offset="0" style="stop-color:#4042E2"/>
						<stop  offset="1" style="stop-color:#4F52FF"/>
					</linearGradient>
					<polygon style="fill:url(#SVGID_00000016073173396819151600000004761964587325804682_);" points="849.697,229.868 
						662.073,426.321 888.332,426.727 932.73,228.033 					"/>
					
						<linearGradient id="SVGID_00000076604584420519219020000012736342558704758166_" gradientUnits="userSpaceOnUse" x1="1105.6675" y1="428.7903" x2="1123.3162" y2="-121.2713">
						<stop  offset="0" style="stop-color:#4042E2"/>
						<stop  offset="1" style="stop-color:#4F52FF"/>
					</linearGradient>
					<polygon style="fill:url(#SVGID_00000076604584420519219020000012736342558704758166_);" points="1064.435,225.122 
						1042.55,427.004 1160.975,427.216 1175.456,222.669 					"/>
					
						<linearGradient id="SVGID_00000168092672252948345780000007238939192455084171_" gradientUnits="userSpaceOnUse" x1="1376.8954" y1="437.4929" x2="1394.5441" y2="-112.5674">
						<stop  offset="0" style="stop-color:#4042E2"/>
						<stop  offset="1" style="stop-color:#4F52FF"/>
					</linearGradient>
					<polygon style="fill:url(#SVGID_00000168092672252948345780000007238939192455084171_);" points="1313.946,219.608 
						1328.666,427.517 1447.149,427.73 1424.322,217.169 					"/>
					<polygon style="fill:#91B3FA;" points="1553.822,214.307 1424.322,217.169 1447.149,427.73 1601.574,428.007 					"/>
					<polygon style="fill:#91B3FA;" points="1175.456,222.669 1160.975,427.216 1328.666,427.517 1313.946,219.608 					"/>
					
						<linearGradient id="SVGID_00000063606379565053417620000002119354610027906749_" gradientUnits="userSpaceOnUse" x1="1718.6144" y1="448.4569" x2="1736.2631" y2="-101.6047">
						<stop  offset="0" style="stop-color:#4042E2"/>
						<stop  offset="1" style="stop-color:#4F52FF"/>
					</linearGradient>
					<polygon style="fill:url(#SVGID_00000063606379565053417620000002119354610027906749_);" points="1891.559,428.528 
						1628.84,212.649 1553.822,214.307 1601.574,428.007 					"/>
				</g>
				<g>
					
						<linearGradient id="SVGID_00000183945087372320235400000003511156266347192253_" gradientUnits="userSpaceOnUse" x1="792.3946" y1="-304.4682" x2="777.687" y2="336.7796">
						<stop  offset="0" style="stop-color:#4042E2"/>
						<stop  offset="1" style="stop-color:#4F52FF"/>
					</linearGradient>
					<path style="fill:url(#SVGID_00000183945087372320235400000003511156266347192253_);" d="M662.073,426.321
						c0,0-11.037,72.842,88.294,81.671c99.33,8.829,139.062-81.671,139.062-81.671H662.073z"/>
					<path style="fill:#BDD0FB;" d="M1041.735,426.321c0,0-4.415,79.464-79.464,81.671c-84.017,2.471-72.842-81.671-72.842-81.671
						H1041.735z"/>
					
						<linearGradient id="SVGID_00000170984081482539901060000009125818010570143908_" gradientUnits="userSpaceOnUse" x1="1117.9261" y1="-297.0018" x2="1103.2186" y2="344.2465">
						<stop  offset="0" style="stop-color:#4042E2"/>
						<stop  offset="1" style="stop-color:#4F52FF"/>
					</linearGradient>
					<path style="fill:url(#SVGID_00000170984081482539901060000009125818010570143908_);" d="M1041.735,426.321h119.196
						c0,0,0,81.671-59.598,81.671C1041.368,507.992,1041.735,426.321,1041.735,426.321z"/>
				</g>
				<g>
					
						<linearGradient id="SVGID_00000131361857395113080360000005598584469533361854_" gradientUnits="userSpaceOnUse" x1="-1301.0645" y1="-266.7839" x2="-1315.772" y2="374.4639" gradientTransform="matrix(-1 0 0 1 429.8347 0)">
						<stop  offset="0" style="stop-color:#4042E2"/>
						<stop  offset="1" style="stop-color:#4F52FF"/>
					</linearGradient>
					<path style="fill:url(#SVGID_00000131361857395113080360000005598584469533361854_);" d="M1891.559,426.321
						c0,0-51.133,72.842-150.464,81.671c-99.33,8.829-139.062-81.671-139.062-81.671H1891.559z"/>
					<path style="fill:#BDD0FB;" d="M1449.727,426.321c0,0,4.415,79.464,79.464,81.671c84.016,2.471,72.842-81.671,72.842-81.671
						H1449.727z"/>
					
						<linearGradient id="SVGID_00000006690993406196379400000001179001814904853892_" gradientUnits="userSpaceOnUse" x1="-944.5815" y1="-258.608" x2="-959.2891" y2="382.6403" gradientTransform="matrix(-1 0 0 1 429.8347 0)">
						<stop  offset="0" style="stop-color:#4042E2"/>
						<stop  offset="1" style="stop-color:#4F52FF"/>
					</linearGradient>
					<path style="fill:url(#SVGID_00000006690993406196379400000001179001814904853892_);" d="M1449.727,426.321h-119.196
						c0,0,0,81.671,59.598,81.671C1450.094,507.992,1449.727,426.321,1449.727,426.321z"/>
				</g>
				<path style="fill:#BDD0FB;" d="M1160.931,426.321h169.965c0,0-11.037,79.464-83.879,81.671
					C1174.175,510.2,1160.931,426.321,1160.931,426.321z"/>
			</g>
			<path style="opacity:0.67;fill:#FFFFFF;" d="M1176.256,563.953l-42.162-32.792c-3.231-2.513-7.578-2.835-11.27-1.068
				c-20.382,9.755-87.298,9.755-107.68,0c-3.692-1.767-8.039-1.445-11.27,1.068l-42.162,32.792
				c-4.646,3.614-5.483,10.309-1.869,14.956l17.739,22.808c3.028,3.893,8.332,5.2,12.822,3.159l0,0
				c7.159-3.254,15.256,2.101,15.064,9.962l-1.581,64.801c-0.069,2.84,0.999,5.591,2.966,7.64l47.406,49.381h2.103h25.24h2.103
				l47.406-49.381c1.968-2.05,3.035-4.8,2.966-7.64l-1.581-64.801c-0.192-7.862,7.905-13.216,15.064-9.962l0,0
				c4.49,2.041,9.794,0.734,12.823-3.159l17.739-22.808C1181.739,574.262,1180.902,567.566,1176.256,563.953z"/>
		</g>
		<g>
			
				<linearGradient id="SVGID_00000049189963301437287030000013778400136258099129_" gradientUnits="userSpaceOnUse" x1="2783.1924" y1="817.484" x2="2856.5583" y2="1001.5212" gradientTransform="matrix(1 0 0 1 -961.2649 0)">
				<stop  offset="0" style="stop-color:#09005D"/>
				<stop  offset="1" style="stop-color:#1A0F91"/>
			</linearGradient>
			<path style="fill:url(#SVGID_00000049189963301437287030000013778400136258099129_);" d="M1830.822,931.428
				c0,0,44.334-31.113,68.017,24.431c4.327,10.149,29.294,11.831,31.848,32.442c1.318,10.641,9.192,19.163,19.791,20.788
				c26.398,4.046,67.08,17.754,73.589,63.586c4.968,34.983-12.866,48.248-31.582,52.84c-13.746,3.372-22.882,16.743-20.102,30.621
				c2.667,13.312-1.31,28.7-24.372,40.869c-51.678,27.269-103.287-64.602-103.287-64.602l-10.577-160.413L1830.822,931.428z"/>
			<g>
				
					<linearGradient id="SVGID_00000124139106829123998730000008351661527640125579_" gradientUnits="userSpaceOnUse" x1="2776.3926" y1="1641.9594" x2="2827.6047" y2="1043.4167" gradientTransform="matrix(1 0 0 1 -961.2649 0)">
					<stop  offset="0" style="stop-color:#FF928E"/>
					<stop  offset="1" style="stop-color:#FEB3B1"/>
				</linearGradient>
				<path style="fill:url(#SVGID_00000124139106829123998730000008351661527640125579_);" d="M1820.965,1298.16l-3.116,18.328
					c0,0,10.434,105.684,12.29,147.957c0.291,6.628-1.424,13.177-4.902,18.826l-18.142,29.461l46.108-27.208l0.918-5.627
					l-7.548-10.378l9.887-118.392c0.581-6.955-0.854-13.93-4.134-20.091l-9.537-17.917L1820.965,1298.16z"/>
				
					<linearGradient id="SVGID_00000174566893876640025280000000932975282397940899_" gradientUnits="userSpaceOnUse" x1="2761.4319" y1="1495.127" x2="2819.0144" y2="1495.127" gradientTransform="matrix(1 0 0 1 -961.2649 0)">
					<stop  offset="0" style="stop-color:#09005D"/>
					<stop  offset="1" style="stop-color:#1A0F91"/>
				</linearGradient>
				<path style="fill:url(#SVGID_00000174566893876640025280000000932975282397940899_);" d="M1804.058,1517h14.714
					c2.754,0,5.351-1.264,7.031-3.447c4.587-5.96,14.091-17.589,18.635-17.892c6.118-0.408,5.335,21.339,5.335,21.339h3.429
					l4.344-27.024c1.093-6.8-2.289-13.536-8.395-16.721l0,0c0,0-1.398,10.342-8.981,14.916
					c-7.582,4.575-30.856,20.957-30.856,20.957s-2.851-0.406-5.98,0.159C1798.691,1510.125,1799.34,1517,1804.058,1517z"/>
			</g>
			
				<linearGradient id="SVGID_00000040540596673114183350000002081079482478135425_" gradientUnits="userSpaceOnUse" x1="2816.0398" y1="1641.9594" x2="2867.2522" y2="1043.4167" gradientTransform="matrix(1 0 0 1 -961.2649 0)">
				<stop  offset="0" style="stop-color:#FF928E"/>
				<stop  offset="1" style="stop-color:#FEB3B1"/>
			</linearGradient>
			<path style="fill:url(#SVGID_00000040540596673114183350000002081079482478135425_);" d="M1860.612,1298.16l-3.116,18.328
				c0,0,10.434,105.684,12.29,147.957c0.291,6.628-1.424,13.177-4.903,18.826l-18.142,29.461l46.108-27.208l0.918-5.627
				l-7.548-10.378l9.887-118.392c0.58-6.955-0.854-13.93-4.134-20.091l-9.537-17.917L1860.612,1298.16z"/>
			
				<linearGradient id="SVGID_00000049936481086652664820000006972416293087001243_" gradientUnits="userSpaceOnUse" x1="1800.8994" y1="1157.1953" x2="1870.1948" y2="1254.2087">
				<stop  offset="0" style="stop-color:#E1473D"/>
				<stop  offset="1" style="stop-color:#E9605A"/>
			</linearGradient>
			<path style="fill:url(#SVGID_00000049936481086652664820000006972416293087001243_);" d="M1913.239,1176.906
				c-2.509-20.213-27.809-39.278-27.809-39.278c-31.962,11.447-54.752-5.486-54.752-5.486s-9.948,20.447-10.054,41.272
				c-0.106,20.826-1.376,154.547-1.376,154.547c36.952,15.487,75.106,7.892,75.106,7.892
				C1891.502,1287.71,1915.749,1197.118,1913.239,1176.906z"/>
			
				<linearGradient id="SVGID_00000082354498802416276810000002666142953195002508_" gradientUnits="userSpaceOnUse" x1="2801.0793" y1="1495.127" x2="2858.6616" y2="1495.127" gradientTransform="matrix(1 0 0 1 -961.2649 0)">
				<stop  offset="0" style="stop-color:#09005D"/>
				<stop  offset="1" style="stop-color:#1A0F91"/>
			</linearGradient>
			<path style="fill:url(#SVGID_00000082354498802416276810000002666142953195002508_);" d="M1843.705,1517h14.714
				c2.754,0,5.351-1.264,7.031-3.447c4.587-5.96,14.091-17.589,18.635-17.892c6.118-0.408,5.335,21.339,5.335,21.339h3.429
				l4.343-27.024c1.093-6.8-2.289-13.536-8.395-16.721l0,0c0,0-1.398,10.342-8.981,14.916c-7.582,4.575-30.856,20.957-30.856,20.957
				s-2.851-0.406-5.98,0.159C1838.339,1510.125,1838.987,1517,1843.705,1517z"/>
			
				<linearGradient id="SVGID_00000071557261356532540440000002791615416105084803_" gradientUnits="userSpaceOnUse" x1="2816.2109" y1="1067.7109" x2="2839.5691" y2="1284.4237" gradientTransform="matrix(1 0 0 1 -961.2649 0)">
				<stop  offset="0" style="stop-color:#FE7062"/>
				<stop  offset="1" style="stop-color:#FF928E"/>
			</linearGradient>
			<path style="fill:url(#SVGID_00000071557261356532540440000002791615416105084803_);" d="M1885.153,1138.391
				c-9.841-41.703,2.022-72.098,12.329-89.053c6.386-10.506,1.538-24.275-9.942-28.677c-18.401-7.057-39.432-8.407-50.225-8.591
				c-4.655-0.079-9.028,2.13-11.792,5.877c-7.821,10.605-22.584,33.685-18.719,52.333c3.047,14.696,23.582,73.447,23.582,73.447
				S1856.049,1155.872,1885.153,1138.391z"/>
			
				<linearGradient id="SVGID_00000181785904685133044740000011945319571974740662_" gradientUnits="userSpaceOnUse" x1="1848.963" y1="975.4708" x2="1847.9827" y2="1062.7263">
				<stop  offset="0" style="stop-color:#FF928E"/>
				<stop  offset="1" style="stop-color:#FEB3B1"/>
			</linearGradient>
			<path style="fill:url(#SVGID_00000181785904685133044740000011945319571974740662_);" d="M1855.942,965.228l10.257,50.795
				c1.227,5.072-6.1,6.172-11.301,6.598c-8.892,0.727-13.881-1.382-17.499-7.916c-0.368-0.665-0.552-1.417-0.656-2.17l-5.507-39.927
				c-0.437-3.168,1.275-6.242,4.199-7.539l10.627-4.712C1850.153,958.543,1854.889,960.878,1855.942,965.228z"/>
			<g>
				
					<linearGradient id="SVGID_00000178195157874275956560000007280965803675491489_" gradientUnits="userSpaceOnUse" x1="2261.1274" y1="1417.9222" x2="2223.8721" y2="1536.5511" gradientTransform="matrix(0.9832 -0.1824 0.1824 0.9832 -263.63 -3135.2075)">
					<stop  offset="0" style="stop-color:#FF928E"/>
					<stop  offset="1" style="stop-color:#FEB3B1"/>
				</linearGradient>
				<path style="fill:url(#SVGID_00000178195157874275956560000007280965803675491489_);" d="M1834.507,927.859
					c0,0-12.518,8.254-18.112,29.591c-5.594,21.338,2.982,29.12,11.875,28.757c8.892-0.362,21.811-2.955,33.162-18.174
					C1872.783,952.815,1850.901,917.786,1834.507,927.859z"/>
				
					<linearGradient id="SVGID_00000168826458379161125540000013683846558767126941_" gradientUnits="userSpaceOnUse" x1="1313.7661" y1="4334.9946" x2="1351.9496" y2="4430.7769" gradientTransform="matrix(0.9832 -0.1824 0.1824 0.9832 -263.63 -3135.2075)">
					<stop  offset="0" style="stop-color:#09005D"/>
					<stop  offset="1" style="stop-color:#1A0F91"/>
				</linearGradient>
				<path style="fill:url(#SVGID_00000168826458379161125540000013683846558767126941_);" d="M1850.278,959.264
					c0,0,4.921-30.612-20.598-26.23l-5.214,5.298c0,0-12.293-14.187,1.628-24.629c13.921-10.443,33.026-7.494,43.381,11.95
					c10.355,19.443,14.033,33.062,5.012,44.957c-9.021,11.895-15.572,1.52-15.572,1.52s4.196-10.338,0.873-14.837
					c-3.323-4.498-7.766,2.498-7.766,2.498L1850.278,959.264z"/>
				
					<linearGradient id="SVGID_00000179630978330101063580000012255708352255197595_" gradientUnits="userSpaceOnUse" x1="2280.2805" y1="1423.9409" x2="2243.0251" y2="1542.5696" gradientTransform="matrix(0.9832 -0.1824 0.1824 0.9832 -263.63 -3135.2075)">
					<stop  offset="0" style="stop-color:#FF928E"/>
					<stop  offset="1" style="stop-color:#FEB3B1"/>
				</linearGradient>
				<path style="fill:url(#SVGID_00000179630978330101063580000012255708352255197595_);" d="M1853.726,961.933
					c0,0,2.437-15.751,10.441-11.143c8.003,4.608-3.083,14.704-7.52,18.13L1853.726,961.933z"/>
			</g>
			
				<linearGradient id="SVGID_00000075122826876122974600000005716803456534702229_" gradientUnits="userSpaceOnUse" x1="2600.7229" y1="1201.1069" x2="2652.3105" y2="1379.9436" gradientTransform="matrix(0.8845 -0.4665 0.4665 0.8845 -1106.5798 1131.8464)">
				<stop  offset="0" style="stop-color:#FF928E"/>
				<stop  offset="1" style="stop-color:#FEB3B1"/>
			</linearGradient>
			<path style="fill:url(#SVGID_00000075122826876122974600000005716803456534702229_);" d="M1715.714,1030.518
				c-0.26-2.014,2.104-3.329,3.671-2.037c5.84,4.815,17.158,12.439,28.184,10.243c0.556-0.11,1.09-0.203,1.611-0.286
				c-0.419-1.414-1.346-2.749-3.241-3.508c-5.425-2.173-4.519-10.956-4.519-10.956s3.685,4.601,9.471,5.073
				c4.984,0.407,10.568,5.164,11.749,11.444c7.836,20.921,17.402,49.149,56.007,47.657c28.656-1.107,43.256-34.645,48.878-51.857
				c2.195-6.722,8.756-11.167,15.79-10.446c9.302,0.954,15.482,5.248,17.882,13.587c1.203,4.183,0.646,8.671-1.303,12.563
				c-8.552,17.081-39.472,71.264-85.242,65.836c-54.256-6.436-62.446-65.293-62.446-65.293S1719.535,1060.08,1715.714,1030.518z"/>
		</g>
		<g>
			
				<linearGradient id="SVGID_00000160169151658268713940000016587869463419710636_" gradientUnits="userSpaceOnUse" x1="-193.7479" y1="1462.7283" x2="-403.5557" y2="1690.9406" gradientTransform="matrix(-1 0 0 1 1838.1316 0)">
				<stop  offset="0" style="stop-color:#09005D"/>
				<stop  offset="1" style="stop-color:#1A0F91"/>
			</linearGradient>
			<path style="fill:url(#SVGID_00000160169151658268713940000016587869463419710636_);" d="M2098.2,1479.729
				c0,0,2.173,12.301,3.238,24.477c0.417,4.758-3.253,8.891-8.025,9.089c-16.215,0.676-50.901,1.989-63.347,1.433
				c-1.871-0.083-3.094-1.999-2.402-3.739l0,0c0.58-1.459,1.7-2.637,3.125-3.293l57.294-26.332L2098.2,1479.729z"/>
			
				<linearGradient id="SVGID_00000103952967712596451540000007816566102985705391_" gradientUnits="userSpaceOnUse" x1="-261.8486" y1="1479.6781" x2="-243.2125" y2="1479.6781" gradientTransform="matrix(-1 0 0 1 1838.1316 0)">
				<stop  offset="0" style="stop-color:#FF928E"/>
				<stop  offset="1" style="stop-color:#FEB3B1"/>
			</linearGradient>
			<path style="fill:url(#SVGID_00000103952967712596451540000007816566102985705391_);" d="M2099.98,1472.501l-1.746,14.713
				c0,0-10.037,4.672-16.891-0.589l4.156-16.397L2099.98,1472.501z"/>
			
				<linearGradient id="SVGID_00000170270280350014865940000010517023187910502288_" gradientUnits="userSpaceOnUse" x1="-295.6102" y1="1463.1078" x2="-254.4305" y2="1223.8738" gradientTransform="matrix(-1 0 0 1 1838.1316 0)">
				<stop  offset="0" style="stop-color:#09005D"/>
				<stop  offset="1" style="stop-color:#1A0F91"/>
			</linearGradient>
			<path style="fill:url(#SVGID_00000170270280350014865940000010517023187910502288_);" d="M2098.668,1195.887
				c0.754,3.842,4.048,191.739-16.037,275.942c-0.328,1.374,0.368,2.79,1.676,3.324c3.08,1.258,9.12,3.081,16.357,3.325
				c2.241,0.075,4.251-1.382,4.884-3.533c5.741-19.536,33.251-117.42,36.841-210.924c4.01-104.482,0-3.557,0-3.557l-2.352-64.585
				L2098.668,1195.887z"/>
			
				<linearGradient id="SVGID_00000121961485089960705180000017578351388978152875_" gradientUnits="userSpaceOnUse" x1="-240.8156" y1="1419.4576" x2="-450.6221" y2="1647.6685" gradientTransform="matrix(-1 0 0 1 1838.1316 0)">
				<stop  offset="0" style="stop-color:#09005D"/>
				<stop  offset="1" style="stop-color:#1A0F91"/>
			</linearGradient>
			<path style="fill:url(#SVGID_00000121961485089960705180000017578351388978152875_);" d="M2164.107,1486.146
				c0,0,3.459,6.21,6.807,22.711c0.604,2.98-1.478,5.832-4.504,6.13c-5.354,0.526-13.597,1.203-20.2,1.158
				c-3.044-0.021-5.419-2.672-5.052-5.693c0.732-6.023,3.01-15.905,10.049-23.607L2164.107,1486.146z"/>
			
				<linearGradient id="SVGID_00000031916209775891884410000017661202354089604011_" gradientUnits="userSpaceOnUse" x1="-329.0131" y1="1478.7224" x2="-312.9227" y2="1478.7224" gradientTransform="matrix(-1 0 0 1 1838.1316 0)">
				<stop  offset="0" style="stop-color:#FF928E"/>
				<stop  offset="1" style="stop-color:#FEB3B1"/>
			</linearGradient>
			<path style="fill:url(#SVGID_00000031916209775891884410000017661202354089604011_);" d="M2167.145,1467.221l-4.079,22.251
				c0,0-4.033,3-12.011,0.825l1.947-23.94L2167.145,1467.221z"/>
			
				<linearGradient id="SVGID_00000041264698998032799800000016451708862008205225_" gradientUnits="userSpaceOnUse" x1="-342.1744" y1="1455.0924" x2="-300.9947" y2="1215.8583" gradientTransform="matrix(-1 0 0 1 1838.1316 0)">
				<stop  offset="0" style="stop-color:#09005D"/>
				<stop  offset="1" style="stop-color:#1A0F91"/>
			</linearGradient>
			<path style="fill:url(#SVGID_00000041264698998032799800000016451708862008205225_);" d="M2178.164,1201.653
				c16.427,99.136-3.563,245.023-10.305,273.576c-0.413,1.748-1.824,3.088-3.595,3.381c-3.009,0.499-7.964,0.906-12.848-0.513
				c-1.683-0.488-2.865-2.006-2.934-3.758c-0.904-23.085,0.724-164.802-14.582-220.81c-0.776-2.839-2.51-5.314-4.907-7.019
				l-29.708-21.12l-2.278-34.138L2178.164,1201.653z"/>
			<g>
				
					<linearGradient id="SVGID_00000160152961684421756900000006269359268489046179_" gradientUnits="userSpaceOnUse" x1="-371.2326" y1="1167.3928" x2="-77.9917" y2="956.3572" gradientTransform="matrix(-1 0 0 1 1838.1316 0)">
					<stop  offset="0" style="stop-color:#FE7062"/>
					<stop  offset="1" style="stop-color:#FF928E"/>
				</linearGradient>
				<path style="fill:url(#SVGID_00000160152961684421756900000006269359268489046179_);" d="M2073.493,1013.809
					c49.228-0.813,103.545,12.925,103.545,12.925c14.674,85.621,2.566,184.378,2.566,184.378
					c-38.111,9.994-81.102-6.111-81.102-6.111c-6.334-35.787-35.888-136.505-35.888-136.505
					c-24.052-2.985-43.867-9.924-60.183-19.099c12.446-14.427,18.314-32.785,20.862-43.636
					C2040.697,1011.171,2058.309,1014.061,2073.493,1013.809z"/>
				
					<linearGradient id="SVGID_00000126281349311705959480000011573046395398933164_" gradientUnits="userSpaceOnUse" x1="-185.1609" y1="993.4838" x2="-89.9523" y2="993.4838" gradientTransform="matrix(-1 0 0 1 1838.1316 0)">
					<stop  offset="0" style="stop-color:#FF928E"/>
					<stop  offset="1" style="stop-color:#FEB3B1"/>
				</linearGradient>
				<path style="fill:url(#SVGID_00000126281349311705959480000011573046395398933164_);" d="M1928.084,941.3
					c4.836-5.841,10.956-3.078,10.956-3.078c7.244,30.601,45.228,55.412,84.252,67.54c-2.548,10.852-8.416,29.209-20.862,43.636
					C1937.667,1012.985,1928.084,941.3,1928.084,941.3z"/>
			</g>
			<g>
				
					<linearGradient id="SVGID_00000021836671969160902260000012364936375334942861_" gradientUnits="userSpaceOnUse" x1="9322.9395" y1="977.5249" x2="9386.8271" y2="1122.8839" gradientTransform="matrix(1 0 0 1 -7373.6465 0)">
					<stop  offset="0" style="stop-color:#FF928E"/>
					<stop  offset="1" style="stop-color:#FEB3B1"/>
				</linearGradient>
				<path style="fill:url(#SVGID_00000021836671969160902260000012364936375334942861_);" d="M1929.257,942.785
					c-0.506,1.609,5.353,4.058,8.804-2.521c0.12-3.153,2.038-16.661,0.154-19.23c-10.035-13.681-29.49-30.83-29.49-30.83
					c-3.288,3.245-0.579,6.432-0.579,6.432l9.438,9.832c-1.974,3.567-4.382,6.578-5.51,10.893c-0.855,3.268-0.332,6.76,1.318,9.734
					c1.657,2.985,3.917,6.865,6.054,9.901C1923.49,942.742,1929.257,942.785,1929.257,942.785z"/>
				
					<linearGradient id="SVGID_00000003819444578872632880000007935893311938505391_" gradientUnits="userSpaceOnUse" x1="-90.4091" y1="929.1151" x2="-63.7516" y2="888.1291" gradientTransform="matrix(-1 0 0 1 1838.1316 0)">
					<stop  offset="0" style="stop-color:#FF928E"/>
					<stop  offset="1" style="stop-color:#FEB3B1"/>
				</linearGradient>
				<path style="fill:url(#SVGID_00000003819444578872632880000007935893311938505391_);" d="M1921.712,912.847l8.601,7.291
					l2.7,7.259l-7.668,8.507c0,0-2.578-14.403-4.495-17.521C1918.934,915.265,1919.927,913.758,1921.712,912.847z"/>
			</g>
			
				<linearGradient id="SVGID_00000050641952452494739220000004490220622632980904_" gradientUnits="userSpaceOnUse" x1="-410.0517" y1="1113.4529" x2="-116.8101" y2="902.4167" gradientTransform="matrix(-1 0 0 1 1838.1316 0)">
				<stop  offset="0" style="stop-color:#FE7062"/>
				<stop  offset="1" style="stop-color:#FF928E"/>
			</linearGradient>
			<path style="fill:url(#SVGID_00000050641952452494739220000004490220622632980904_);" d="M2158.156,1074.402l18.881-47.667
				c0,0,45.981,31.243,53.543,70.854c-8.688,0.64-23.254,3.044-38.729,10.858
				C2184.868,1092.734,2158.156,1074.402,2158.156,1074.402z"/>
			
				<linearGradient id="SVGID_00000126325254490506470350000005562562673205058965_" gradientUnits="userSpaceOnUse" x1="2111.2427" y1="954.3781" x2="2122.0269" y2="1067.1243">
				<stop  offset="0" style="stop-color:#FF928E"/>
				<stop  offset="1" style="stop-color:#FEB3B1"/>
			</linearGradient>
			<path style="fill:url(#SVGID_00000126325254490506470350000005562562673205058965_);" d="M2123.357,973.844l15.664,45.298
				c0.259,0.75-0.049,1.581-0.744,1.965c-4.27,2.361-19.652,9.184-38.19-2.569c-1.931-1.224-3.246-3.221-3.539-5.489l-5.072-39.205
				H2123.357z"/>
			<g>
				
					<linearGradient id="SVGID_00000156563443715201421990000005296419988350446249_" gradientUnits="userSpaceOnUse" x1="-4956.0122" y1="-3438.0193" x2="-5010.9146" y2="-3371.3518" gradientTransform="matrix(-0.746 -0.6659 -0.6659 0.746 -3817.1089 -1476.3188)">
					<stop  offset="0" style="stop-color:#FF928E"/>
					<stop  offset="1" style="stop-color:#FEB3B1"/>
				</linearGradient>
				<path style="fill:url(#SVGID_00000156563443715201421990000005296419988350446249_);" d="M2089.275,931.898
					c0,0-17.2,32.377-14.995,45.456c2.205,13.079,23.522,12.14,42.136,1.517l13.007-34.96L2089.275,931.898z"/>
				
					<linearGradient id="SVGID_00000023266058802861695380000016627747902708928949_" gradientUnits="userSpaceOnUse" x1="-6044.2715" y1="-2205.0288" x2="-6029.3809" y2="-2120.0967" gradientTransform="matrix(-0.746 -0.6659 -0.6659 0.746 -3817.1089 -1476.3188)">
					<stop  offset="0" style="stop-color:#09005D"/>
					<stop  offset="1" style="stop-color:#1A0F91"/>
				</linearGradient>
				<path style="fill:url(#SVGID_00000023266058802861695380000016627747902708928949_);" d="M2115.593,961.702
					c-0.756-0.335-1.036-1.261-0.582-1.953c1.378-2.105,3.961-6.4,4.785-10.16c0,0,3.092-1.98-7.87-4.604
					c-10.962-2.624-27.309-6.696-30.745-16.027c-3.35-9.097,5.452-31.975,19.495-13.746c0.534,0.693,1.581,0.708,2.115,0.014
					c2.302-2.996,8.354-9.215,16.757-5.445c7.863,3.528,8.749,9.29,8.641,12.194c-0.032,0.854,0.732,1.518,1.572,1.359
					c3.976-0.758,13.516-1.409,17.969,8.377c3.668,8.061,1.284,12.625-0.887,14.857c-0.704,0.723-0.395,1.914,0.569,2.209
					c2.613,0.8,5.987,3.015,5.649,9.137c-0.467,8.463-9.929,7.717-12.623,7.332c-0.442-0.063-0.886,0.089-1.185,0.419
					c-2.31,2.556-12.717,13.41-23.98,14.718c-0.975,0.113-1.731-0.85-1.412-1.778l4.875-14.17c0.226-0.658-0.089-1.38-0.725-1.662
					L2115.593,961.702z"/>
				
					<linearGradient id="SVGID_00000116235977546561595000000011276662221702187924_" gradientUnits="userSpaceOnUse" x1="-4969.0288" y1="-3448.74" x2="-5023.9312" y2="-3382.0725" gradientTransform="matrix(-0.746 -0.6659 -0.6659 0.746 -3817.1089 -1476.3188)">
					<stop  offset="0" style="stop-color:#FF928E"/>
					<stop  offset="1" style="stop-color:#FEB3B1"/>
				</linearGradient>
				<path style="fill:url(#SVGID_00000116235977546561595000000011276662221702187924_);" d="M2113.634,963.714
					c0,0,12.247-8.403,13.141-1.327c0.895,7.076-11.028,10.249-16.934,7.612L2113.634,963.714z"/>
			</g>
			<g>
				<path style="fill:#BDD0FB;" d="M2017.603,1364.015c1.619,0,3.059-1.152,3.367-2.802l22.327-119.8
					c0.347-1.861-0.882-3.652-2.744-4c-1.855-0.35-3.652,0.881-4,2.744l-22.326,119.801c-0.347,1.861,0.882,3.652,2.744,4
					C2017.183,1363.995,2017.395,1364.015,2017.603,1364.015z"/>
				<path style="fill:#BDD0FB;" d="M1859.156,1368.462h183.482c3.788,0,6.859-3.071,6.859-6.859c0-3.788-3.071-6.859-6.859-6.859
					h-178.976l-46.366-107.174h264.782c3.788,0,6.859-3.071,6.859-6.859c0-3.788-3.071-6.859-6.859-6.859h-275.223
					c-2.31,0-4.465,1.162-5.733,3.093c-1.268,1.931-1.479,4.37-0.563,6.49l52.301,120.892
					C1853.947,1366.837,1856.42,1368.462,1859.156,1368.462z"/>
				<g>
					<path style="fill:#BDD0FB;" d="M1871.326,1488.441h144.58c3.158,0,5.941-2.074,6.843-5.101l86.105-287.283h60.144
						c3.943,0,7.14-3.197,7.14-7.14c0-3.943-3.197-7.14-7.14-7.14h-65.467c-3.157,0-5.941,2.074-6.843,5.101l-86.105,287.283
						h-139.258c-3.943,0-7.14,3.197-7.14,7.14C1864.187,1485.244,1867.383,1488.441,1871.326,1488.441z"/>
				</g>
				<g>
					
						<linearGradient id="SVGID_00000060714385536559804320000011818588933381344675_" gradientUnits="userSpaceOnUse" x1="1997.7596" y1="1499.1504" x2="2033.4585" y2="1499.1504">
						<stop  offset="0" style="stop-color:#09005D"/>
						<stop  offset="1" style="stop-color:#1A0F91"/>
					</linearGradient>
					
						<circle style="fill:url(#SVGID_00000060714385536559804320000011818588933381344675_);" cx="2015.609" cy="1499.151" r="17.849"/>
					<g>
						
							<ellipse transform="matrix(0.7071 -0.7071 0.7071 0.7071 -469.5561 1864.6924)" style="fill:#91B3FA;" cx="2016.105" cy="1499.151" rx="12.891" ry="12.891"/>
					</g>
				</g>
				<g>
					
						<linearGradient id="SVGID_00000152248213012209208850000015912792035916720828_" gradientUnits="userSpaceOnUse" x1="1862.699" y1="1499.1504" x2="1898.3978" y2="1499.1504">
						<stop  offset="0" style="stop-color:#09005D"/>
						<stop  offset="1" style="stop-color:#1A0F91"/>
					</linearGradient>
					
						<circle style="fill:url(#SVGID_00000152248213012209208850000015912792035916720828_);" cx="1880.548" cy="1499.151" r="17.849"/>
					<g>
						<path style="fill:#91B3FA;" d="M1868.153,1499.151c0,7.12,5.772,12.891,12.891,12.891c7.12,0,12.891-5.772,12.891-12.891
							c0-7.12-5.772-12.891-12.891-12.891C1873.925,1486.259,1868.153,1492.031,1868.153,1499.151z"/>
					</g>
				</g>
				<path style="fill:#BDD0FB;" d="M1987.105,1364.559c1.862,0,3.389-1.49,3.427-3.361l2.375-118.703
					c0.038-1.894-1.466-3.46-3.36-3.497c-1.927-0.076-3.46,1.466-3.498,3.36l-2.375,118.703c-0.038,1.894,1.466,3.46,3.36,3.497
					C1987.058,1364.559,1987.082,1364.559,1987.105,1364.559z"/>
				<path style="fill:#BDD0FB;" d="M1952.253,1364.014c1.894,0,3.43-1.536,3.43-3.43v-118.167c0-1.894-1.536-3.43-3.43-3.43
					c-1.894,0-3.429,1.536-3.429,3.43v118.167C1948.823,1362.478,1950.359,1364.014,1952.253,1364.014z"/>
				<path style="fill:#BDD0FB;" d="M1911.41,1363.469c0.008,0,0.017,0,0.024,0c1.894-0.013,3.419-1.559,3.406-3.453l-0.812-117.614
					c-0.013-1.886-1.547-3.406-3.429-3.406c-0.008,0-0.017,0-0.024,0c-1.894,0.013-3.419,1.559-3.406,3.453l0.812,117.614
					C1907.995,1361.95,1909.528,1363.469,1911.41,1363.469z"/>
				<path style="fill:#BDD0FB;" d="M1884.874,1362.461c0.216,0,0.436-0.021,0.656-0.064c1.859-0.361,3.074-2.16,2.714-4.02
					l-22.292-114.89c-0.361-1.858-2.162-3.071-4.02-2.714c-1.859,0.361-3.075,2.16-2.714,4.02l22.292,114.891
					C1881.829,1361.323,1883.265,1362.461,1884.874,1362.461z"/>
				<path style="fill:#BDD0FB;" d="M1819.383,1273.619h253.214c1.894,0,3.43-1.536,3.43-3.43c0-1.894-1.536-3.429-3.43-3.429
					h-253.214c-1.894,0-3.429,1.536-3.429,3.429C1815.954,1272.084,1817.489,1273.619,1819.383,1273.619z"/>
				<path style="fill:#BDD0FB;" d="M1834.63,1308.47h226.532c1.894,0,3.429-1.536,3.429-3.43c0-1.894-1.535-3.43-3.429-3.43H1834.63
					c-1.894,0-3.429,1.536-3.429,3.43C1831.201,1306.934,1832.736,1308.47,1834.63,1308.47z"/>
				<path style="fill:#BDD0FB;" d="M1849.877,1340.599h202.572c1.894,0,3.43-1.536,3.43-3.43c0-1.894-1.536-3.43-3.43-3.43h-202.572
					c-1.894,0-3.429,1.536-3.429,3.43C1846.448,1339.063,1847.984,1340.599,1849.877,1340.599z"/>
			</g>
			
				<linearGradient id="SVGID_00000049916113690656935980000014485225523870287789_" gradientUnits="userSpaceOnUse" x1="-876.069" y1="1758.7621" x2="-764.3031" y2="1622.4862" gradientTransform="matrix(-1 0 0 1 1838.1316 0)">
				<stop  offset="0" style="stop-color:#FF928E"/>
				<stop  offset="1" style="stop-color:#FEB3B1"/>
			</linearGradient>
			<path style="fill:url(#SVGID_00000049916113690656935980000014485225523870287789_);" d="M2230.263,1097.972
				c0,0,31.427,71.584-45.395,82.06l-10.475-8.73c0,0,38.411-20.952,17.459-62.854
				C2191.852,1108.447,2214.549,1089.242,2230.263,1097.972z"/>
			
				<linearGradient id="SVGID_00000173870665896825734630000014000051044415705247_" gradientUnits="userSpaceOnUse" x1="-822.9871" y1="1802.2964" x2="-711.2213" y2="1666.0205" gradientTransform="matrix(-1 0 0 1 1838.1316 0)">
				<stop  offset="0" style="stop-color:#FF928E"/>
				<stop  offset="1" style="stop-color:#FEB3B1"/>
			</linearGradient>
			<path style="fill:url(#SVGID_00000173870665896825734630000014000051044415705247_);" d="M2174.393,1171.302h-27.935
				c0,0-17.46,22.697-15.714,27.935c1.746,5.238,19.001,1.075,19.001,1.075l8.934-15.042c0,0,26.189,1.746,26.189-5.238
				C2184.868,1173.048,2174.393,1171.302,2174.393,1171.302z"/>
		</g>
		<g>
			
				<linearGradient id="SVGID_00000000185744607614627570000016230765730444642438_" gradientUnits="userSpaceOnUse" x1="214.2369" y1="806.5684" x2="455.1408" y2="526.9481">
				<stop  offset="0" style="stop-color:#E1473D"/>
				<stop  offset="1" style="stop-color:#E9605A"/>
			</linearGradient>
			<circle style="fill:url(#SVGID_00000000185744607614627570000016230765730444642438_);" cx="460.007" cy="521.3" r="179.603"/>
			
				<linearGradient id="SVGID_00000152976620408029317260000006707075999244448159_" gradientUnits="userSpaceOnUse" x1="591.2673" y1="323.0029" x2="-121.0925" y2="1399.1754">
				<stop  offset="0" style="stop-color:#FE7062"/>
				<stop  offset="1" style="stop-color:#FF928E"/>
			</linearGradient>
			<circle style="fill:url(#SVGID_00000152976620408029317260000006707075999244448159_);" cx="460.007" cy="521.3" r="173.631"/>
			<path style="opacity:0.76;fill:#FFFFFF;" d="M299.95,514.762c-0.035,0-0.069-0.001-0.105-0.003
				c-1.084-0.057-1.918-0.982-1.862-2.067c0.357-6.831,1.151-13.687,2.358-20.38c0.192-1.069,1.207-1.787,2.285-1.586
				c1.069,0.192,1.779,1.216,1.586,2.285c-1.178,6.529-1.952,13.22-2.3,19.886C301.857,513.947,300.989,514.762,299.95,514.762z"/>
			<path style="opacity:0.76;fill:#FFFFFF;" d="M316.831,451.141c-0.298,0-0.6-0.067-0.885-0.211
				c-0.97-0.489-1.359-1.672-0.869-2.642c27.782-55.042,83.316-89.235,144.93-89.235c9.832,0,19.679,0.885,29.268,2.633
				c1.069,0.195,1.778,1.219,1.583,2.288c-0.195,1.069-1.22,1.776-2.288,1.583c-9.358-1.705-18.968-2.569-28.563-2.569
				c-60.12,0-114.309,33.365-141.419,87.074C318.242,450.746,317.55,451.141,316.831,451.141z"/>
			<g style="opacity:0.76;">
				<path style="fill:#FFFFFF;" d="M560.433,610.459H368.856c-3.781,0-6.857-3.076-6.857-6.857V500.564
					c0-1.686,1.367-3.053,3.052-3.053c1.686,0,3.053,1.367,3.053,3.053v103.039c0,0.414,0.337,0.751,0.751,0.751h191.577
					c0.414,0,0.751-0.337,0.751-0.751V500.564c0-1.686,1.367-3.053,3.052-3.053c1.686,0,3.053,1.367,3.053,3.053v103.039
					C567.29,607.383,564.214,610.459,560.433,610.459z"/>
				<path style="fill:#FFFFFF;" d="M543.664,592.906H385.478c-4.781,0-8.671-3.89-8.671-8.67v-68.133c0-4.78,3.89-8.67,8.671-8.67
					h158.186c4.781,0,8.671,3.89,8.671,8.67v68.133C552.334,589.016,548.445,592.906,543.664,592.906z M385.478,513.538
					c-1.415,0-2.565,1.151-2.565,2.565v68.133c0,1.414,1.151,2.565,2.565,2.565h158.186c1.414,0,2.565-1.151,2.565-2.565v-68.133
					c0-1.415-1.151-2.565-2.565-2.565H385.478z"/>
				<path style="fill:#FFFFFF;" d="M585.224,484.538H344.065c-1.303,0-2.463-0.827-2.887-2.06c-0.423-1.233-0.017-2.6,1.01-3.4
					l51.895-40.448c0.537-0.417,1.197-0.645,1.877-0.645h137.369c0.68,0,1.34,0.227,1.877,0.645l51.895,40.448
					c1.028,0.8,1.434,2.167,1.01,3.4C587.687,483.711,586.527,484.538,585.224,484.538z M352.947,478.432h223.394L532.28,444.09
					H397.01L352.947,478.432z"/>
				<path style="fill:#FFFFFF;" d="M464.645,484.538c-1.686,0-3.053-1.367-3.053-3.053V441.31c0-1.686,1.367-3.053,3.053-3.053
					c1.686,0,3.053,1.367,3.053,3.053v40.175C467.697,483.171,466.33,484.538,464.645,484.538z"/>
				<g>
					<path style="fill:#FFFFFF;" d="M525.235,484.538c-1.081,0-2.127-0.574-2.682-1.589l-21.965-40.175
						c-0.809-1.479-0.265-3.334,1.214-4.143c1.479-0.808,3.334-0.265,4.143,1.214l21.965,40.176
						c0.809,1.479,0.265,3.333-1.214,4.142C526.232,484.417,525.73,484.538,525.235,484.538z"/>
					<path style="fill:#FFFFFF;" d="M404.054,484.538c-0.495,0-0.996-0.121-1.461-0.374c-1.479-0.81-2.023-2.664-1.214-4.142
						l21.965-40.176c0.809-1.479,2.665-2.021,4.143-1.214c1.479,0.809,2.023,2.664,1.214,4.143l-21.965,40.175
						C406.181,483.964,405.134,484.538,404.054,484.538z"/>
				</g>
				<path style="fill:#FFFFFF;" d="M373.373,502.854c-18.615,0-33.198-9.386-33.198-21.368c0-1.686,1.367-3.053,3.053-3.053
					c1.686,0,3.053,1.367,3.053,3.053c0,8.274,12.407,15.263,27.092,15.263c14.686,0,27.092-6.989,27.092-15.263
					c0-1.686,1.367-3.053,3.053-3.053c1.686,0,3.053,1.367,3.053,3.053C406.571,493.468,391.989,502.854,373.373,502.854z"/>
				<path style="fill:#FFFFFF;" d="M434.426,502.854c-18.615,0-33.198-9.386-33.198-21.368c0-1.686,1.367-3.053,3.053-3.053
					c1.686,0,3.053,1.367,3.053,3.053c0,8.274,12.407,15.263,27.092,15.263c14.686,0,27.092-6.989,27.092-15.263
					c0-1.686,1.367-3.053,3.053-3.053c1.686,0,3.053,1.367,3.053,3.053C467.623,493.468,453.041,502.854,434.426,502.854z"/>
				<path style="fill:#FFFFFF;" d="M495.479,502.854c-18.615,0-33.197-9.386-33.197-21.368c0-1.686,1.367-3.053,3.052-3.053
					c1.686,0,3.053,1.367,3.053,3.053c0,8.274,12.406,15.263,27.092,15.263c14.686,0,27.092-6.989,27.092-15.263
					c0-1.686,1.367-3.053,3.053-3.053s3.053,1.367,3.053,3.053C528.676,493.468,514.094,502.854,495.479,502.854z"/>
				<path style="fill:#FFFFFF;" d="M556.532,502.854c-18.615,0-33.198-9.386-33.198-21.368c0-1.686,1.367-3.053,3.053-3.053
					s3.053,1.367,3.053,3.053c0,8.274,12.406,15.263,27.092,15.263c14.686,0,27.092-6.989,27.092-15.263
					c0-1.686,1.367-3.053,3.052-3.053s3.053,1.367,3.053,3.053C589.729,493.468,575.147,502.854,556.532,502.854z"/>
			</g>
		</g>
		<g>
			
				<linearGradient id="SVGID_00000105418382801443715560000016957364841817027501_" gradientUnits="userSpaceOnUse" x1="214.2369" y1="1210.4104" x2="455.1409" y2="930.79">
				<stop  offset="0" style="stop-color:#E1473D"/>
				<stop  offset="1" style="stop-color:#E9605A"/>
			</linearGradient>
			<circle style="fill:url(#SVGID_00000105418382801443715560000016957364841817027501_);" cx="460.007" cy="925.142" r="179.603"/>
			
				<linearGradient id="SVGID_00000181794307721797076020000006095262545067770047_" gradientUnits="userSpaceOnUse" x1="591.2673" y1="726.8449" x2="-121.0924" y2="1803.0173">
				<stop  offset="0" style="stop-color:#FE7062"/>
				<stop  offset="1" style="stop-color:#FF928E"/>
			</linearGradient>
			<circle style="fill:url(#SVGID_00000181794307721797076020000006095262545067770047_);" cx="460.007" cy="925.142" r="173.631"/>
			<path style="opacity:0.75;fill:#FFFFFF;" d="M299.95,918.604c-0.035,0-0.069,0-0.105-0.002c-1.084-0.058-1.918-0.984-1.862-2.067
				c0.357-6.833,1.151-13.689,2.358-20.38c0.192-1.068,1.207-1.783,2.285-1.587c1.069,0.194,1.779,1.216,1.586,2.286
				c-1.178,6.528-1.952,13.218-2.3,19.884C301.857,917.789,300.989,918.604,299.95,918.604z"/>
			<path style="opacity:0.75;fill:#FFFFFF;" d="M316.831,854.982c-0.298,0-0.6-0.067-0.885-0.211
				c-0.97-0.49-1.359-1.673-0.869-2.641c27.783-55.042,83.317-89.235,144.93-89.235c9.832,0,19.679,0.886,29.268,2.633
				c1.069,0.195,1.778,1.219,1.583,2.288c-0.195,1.07-1.22,1.77-2.288,1.583c-9.358-1.705-18.968-2.569-28.563-2.569
				c-60.119,0-114.309,33.365-141.419,87.072C318.242,854.586,317.55,854.982,316.831,854.982z"/>
			<g style="opacity:0.75;">
				<path style="fill:#FFFFFF;" d="M560.433,1014.301H368.856c-3.781,0-6.857-3.077-6.857-6.857V904.406
					c0-1.686,1.367-3.053,3.052-3.053c1.686,0,3.053,1.367,3.053,3.053v103.039c0,0.414,0.337,0.751,0.751,0.751h191.577
					c0.414,0,0.751-0.337,0.751-0.751V904.406c0-1.686,1.367-3.053,3.052-3.053c1.686,0,3.053,1.367,3.053,3.053v103.039
					C567.29,1011.225,564.214,1014.301,560.433,1014.301z"/>
				<path style="fill:#FFFFFF;" d="M543.664,996.749H385.478c-4.781,0-8.671-3.89-8.671-8.671v-68.133
					c0-4.78,3.89-8.671,8.671-8.671h158.186c4.781,0,8.671,3.89,8.671,8.671v68.133
					C552.334,992.858,548.445,996.749,543.664,996.749z M385.478,917.38c-1.415,0-2.565,1.151-2.565,2.565v68.133
					c0,1.415,1.151,2.565,2.565,2.565h158.186c1.414,0,2.565-1.151,2.565-2.565v-68.133c0-1.415-1.151-2.565-2.565-2.565H385.478z"
					/>
				<path style="fill:#FFFFFF;" d="M585.224,888.38H344.065c-1.303,0-2.463-0.827-2.887-2.06c-0.423-1.233-0.017-2.6,1.01-3.4
					l51.895-40.448c0.537-0.417,1.197-0.645,1.877-0.645h137.369c0.68,0,1.34,0.227,1.877,0.645l51.895,40.448
					c1.028,0.801,1.434,2.167,1.01,3.4C587.687,887.552,586.527,888.38,585.224,888.38z M352.947,882.274h223.394l-44.062-34.342
					H397.01L352.947,882.274z"/>
				<path style="fill:#FFFFFF;" d="M464.645,888.38c-1.686,0-3.053-1.367-3.053-3.052v-40.175c0-1.686,1.367-3.053,3.053-3.053
					c1.686,0,3.053,1.367,3.053,3.053v40.175C467.697,887.013,466.33,888.38,464.645,888.38z"/>
				<g>
					<path style="fill:#FFFFFF;" d="M525.235,888.38c-1.081,0-2.127-0.574-2.682-1.589l-21.965-40.175
						c-0.809-1.479-0.265-3.334,1.214-4.143c1.479-0.808,3.334-0.265,4.143,1.214l21.965,40.176
						c0.809,1.479,0.265,3.333-1.214,4.142C526.232,888.259,525.73,888.38,525.235,888.38z"/>
					<path style="fill:#FFFFFF;" d="M404.054,888.38c-0.495,0-0.996-0.121-1.461-0.374c-1.479-0.81-2.023-2.664-1.214-4.142
						l21.965-40.176c0.809-1.479,2.665-2.021,4.143-1.214c1.479,0.809,2.023,2.664,1.214,4.143l-21.965,40.175
						C406.181,887.806,405.134,888.38,404.054,888.38z"/>
				</g>
				<path style="fill:#FFFFFF;" d="M373.373,906.696c-18.615,0-33.198-9.386-33.198-21.368c0-1.686,1.367-3.053,3.053-3.053
					c1.686,0,3.053,1.367,3.053,3.053c0,8.274,12.407,15.263,27.092,15.263c14.686,0,27.092-6.989,27.092-15.263
					c0-1.686,1.367-3.053,3.053-3.053c1.686,0,3.053,1.367,3.053,3.053C406.571,897.31,391.989,906.696,373.373,906.696z"/>
				<path style="fill:#FFFFFF;" d="M434.426,906.696c-18.615,0-33.198-9.386-33.198-21.368c0-1.686,1.367-3.053,3.053-3.053
					c1.686,0,3.053,1.367,3.053,3.053c0,8.274,12.407,15.263,27.092,15.263c14.686,0,27.092-6.989,27.092-15.263
					c0-1.686,1.367-3.053,3.053-3.053c1.686,0,3.053,1.367,3.053,3.053C467.623,897.31,453.041,906.696,434.426,906.696z"/>
				<path style="fill:#FFFFFF;" d="M495.479,906.696c-18.615,0-33.197-9.386-33.197-21.368c0-1.686,1.367-3.053,3.052-3.053
					c1.686,0,3.053,1.367,3.053,3.053c0,8.274,12.406,15.263,27.092,15.263c14.686,0,27.092-6.989,27.092-15.263
					c0-1.686,1.367-3.053,3.053-3.053s3.053,1.367,3.053,3.053C528.676,897.31,514.094,906.696,495.479,906.696z"/>
				<path style="fill:#FFFFFF;" d="M556.532,906.696c-18.615,0-33.198-9.386-33.198-21.368c0-1.686,1.367-3.053,3.053-3.053
					s3.053,1.367,3.053,3.053c0,8.274,12.406,15.263,27.092,15.263c14.686,0,27.092-6.989,27.092-15.263
					c0-1.686,1.367-3.053,3.052-3.053s3.053,1.367,3.053,3.053C589.729,897.31,575.147,906.696,556.532,906.696z"/>
			</g>
		</g>
		<g>
			<path style="fill:#91B3FA;" d="M909.506,1508.806c0,0,77.712-97.648,65.08-189.958c-12.633-92.31-75.697-81.299-103.758-26.713
				c-28.061,54.586-53.287,47.094-36.615-4.225c16.672-51.319,37.567-84.722,3.021-135.808
				c-34.546-51.085-38.128-72.792-18.718-118.376c19.411-45.584,43.785-110.174-33.45-133.22
				c-77.235-23.046-154.177,47.76-136.165,140.429c18.011,92.669,28.83,102.763,4.022,137.089
				c-24.807,34.326-14.469,48.425-10.954,70.768c3.515,22.343-34.384,27.574-33.577-3.896
				c0.807-31.47,49.017-105.747,16.112-140.399c-32.905-34.653-97.4-35.026-113.917,45.098
				c-16.517,80.124,36.404,116.132,33.769,145.111c-2.635,28.979-31.057-14.962-55.812,14.579
				c-24.756,29.541,8.575,52.746,33.103,68.754c24.528,16.008,61.513,44.7,26.32,65.535c-35.193,20.835-68.514,0.896-46.955,65.232
				H909.506z"/>
			<path style="fill:#DCE5FE;" d="M749.744,967.33c-2.536,1.347-4.761,3.035-6.93,4.846c-2.16,1.814-4.152,3.828-6.006,5.966
				c-3.743,4.253-6.905,9.042-9.478,14.135c-5.163,10.202-7.925,21.559-8.845,32.927c-0.162,1.424-0.209,2.847-0.278,4.273
				c-0.052,1.426-0.14,2.856-0.106,4.278l0.023,4.277l0.207,4.264l0.115,2.133l0.209,2.12l0.425,4.243
				c0.426,2.799,0.724,5.635,1.264,8.412c0.512,2.784,1.018,5.576,1.69,8.319l0.95,4.134l0.986,3.996l3.969,15.955
				c5.254,21.264,10.317,42.517,14.296,63.882c3.87,21.351,6.549,42.937,5.946,64.264c-0.139,5.325-0.493,10.63-1.18,15.866
				c-0.661,5.238-1.573,10.432-2.913,15.484c-1.322,5.054-2.95,10.012-5.025,14.755c-2.305,5.368-4.106,10.937-5.514,16.455
				c-2.656,11.079-4.225,22.16-5.423,33.195c-1.161,11.039-2.064,22.036-2.779,33.016c-1.508,21.942-2.8,43.816-5.965,65.387
				c-0.399,2.695-0.823,5.386-1.329,8.057c-0.445,2.688-1.027,5.339-1.577,8.002c-0.509,2.676-1.242,5.283-1.853,7.934
				c-0.346,1.312-0.739,2.607-1.106,3.913c-0.377,1.303-0.724,2.619-1.184,3.89l-1.303,3.85c-0.437,1.284-0.988,2.516-1.477,3.78
				c-0.943,2.548-2.181,4.945-3.311,7.413c-2.522,4.782-5.483,9.345-9.095,13.417l0.882,0.871
				c4.007-3.874,7.416-8.334,10.391-13.069c2.836-4.805,5.312-9.837,7.32-15.037c4.14-10.37,6.863-21.198,9.098-32.055
				c4.465-21.75,6.583-43.777,8.992-65.605c1.224-10.915,2.309-21.812,3.809-32.595c1.488-10.773,3.347-21.454,6.121-31.683
				c1.466-5.091,3.106-9.982,5.231-14.681c2.427-5.288,4.337-10.771,5.892-16.318c1.574-5.549,2.669-11.188,3.484-16.835
				c0.842-5.65,1.32-11.32,1.57-16.976c0.947-22.665-1.867-44.975-5.652-66.862c-3.866-21.898-9.09-43.424-14.932-64.693
				c-1.477-5.314-2.957-10.623-4.49-15.913l-1.156-3.963l-1.057-3.861c-0.753-2.567-1.315-5.168-1.932-7.761
				c-0.652-2.589-1.062-5.21-1.609-7.819l-0.607-3.935c-0.215-1.312-0.403-2.626-0.536-3.943c-0.732-5.265-0.911-10.555-0.96-15.841
				c-0.018-5.289,0.42-10.569,1.322-15.769c0.927-5.191,2.191-10.344,4.075-15.301c0.971-2.461,2.017-4.906,3.249-7.262
				c1.175-2.39,2.545-4.682,4.027-6.909c2.98-4.415,6.51-8.629,10.699-11.962L749.744,967.33z"/>
			<path style="fill:#DCE5FE;" d="M915.183,1298.094c-2.318,17.281-5.612,34.414-9.637,51.314
				c-2.025,8.449-4.254,16.842-6.722,25.155c-0.585,2.088-1.28,4.142-1.914,6.214c-0.629,2.074-1.32,4.127-2.007,6.181
				c-1.312,4.13-2.796,8.196-4.241,12.276c-1.555,4.037-3.064,8.093-4.761,12.069c-1.572,4.03-3.375,7.957-5.116,11.911
				c-3.656,7.826-7.515,15.552-11.803,23.046c-4.272,7.503-8.997,14.732-14.024,21.774c-5.13,6.966-10.716,13.588-16.63,20.015
				l0.837,0.913c6.847-5.523,13.148-11.75,18.957-18.42c5.707-6.752,10.923-13.922,15.693-21.381
				c4.603-7.551,8.946-15.275,12.693-23.284c1.823-4.022,3.709-8.023,5.358-12.118c1.715-4.071,3.21-8.223,4.764-12.352
				c1.439-4.169,2.916-8.325,4.215-12.536c0.685-2.095,1.308-4.208,1.902-6.329c0.593-2.122,1.245-4.226,1.786-6.36
				c2.346-8.489,4.275-17.081,5.941-25.713c3.271-17.273,5.56-34.729,5.947-52.302L915.183,1298.094z"/>
		</g>
		<g>
			
				<linearGradient id="SVGID_00000094605759130187261380000008692714467128954277_" gradientUnits="userSpaceOnUse" x1="214.2369" y1="1614.2524" x2="455.1409" y2="1334.6321">
				<stop  offset="0" style="stop-color:#E1473D"/>
				<stop  offset="1" style="stop-color:#E9605A"/>
			</linearGradient>
			
				<circle style="fill:url(#SVGID_00000094605759130187261380000008692714467128954277_);" cx="460.007" cy="1328.984" r="179.603"/>
			
				<linearGradient id="SVGID_00000073001869315646818320000001831439281335575222_" gradientUnits="userSpaceOnUse" x1="591.2673" y1="1130.687" x2="-121.0924" y2="2206.8594">
				<stop  offset="0" style="stop-color:#FE7062"/>
				<stop  offset="1" style="stop-color:#FF928E"/>
			</linearGradient>
			
				<circle style="fill:url(#SVGID_00000073001869315646818320000001831439281335575222_);" cx="460.007" cy="1328.984" r="173.631"/>
			<path style="opacity:0.76;fill:#FFFFFF;" d="M299.95,1322.446c-0.035,0-0.069,0-0.105-0.002
				c-1.084-0.058-1.918-0.984-1.862-2.067c0.357-6.831,1.151-13.689,2.358-20.382c0.192-1.068,1.207-1.777,2.285-1.587
				c1.069,0.194,1.779,1.216,1.586,2.286c-1.178,6.53-1.952,13.222-2.3,19.886C301.857,1321.631,300.989,1322.446,299.95,1322.446z"
				/>
			<path style="opacity:0.76;fill:#FFFFFF;" d="M316.831,1258.825c-0.298,0-0.6-0.067-0.885-0.211
				c-0.97-0.49-1.359-1.673-0.869-2.641c27.782-55.042,83.316-89.236,144.93-89.236c9.826,0,19.673,0.885,29.268,2.634
				c1.069,0.194,1.777,1.218,1.583,2.286c-0.194,1.07-1.208,1.798-2.288,1.583c-9.363-1.704-18.973-2.568-28.563-2.568
				c-60.12,0-114.309,33.364-141.419,87.073C318.242,1258.429,317.55,1258.825,316.831,1258.825z"/>
			<g style="opacity:0.76;">
				<path style="fill:#FFFFFF;" d="M560.433,1418.143H368.856c-3.781,0-6.857-3.077-6.857-6.857v-103.039
					c0-1.686,1.367-3.052,3.052-3.052c1.686,0,3.053,1.367,3.053,3.052v103.039c0,0.414,0.337,0.751,0.751,0.751h191.577
					c0.414,0,0.751-0.337,0.751-0.751v-103.039c0-1.686,1.367-3.052,3.052-3.052c1.686,0,3.053,1.367,3.053,3.052v103.039
					C567.29,1415.067,564.214,1418.143,560.433,1418.143z"/>
				<path style="fill:#FFFFFF;" d="M543.664,1400.59H385.478c-4.781,0-8.671-3.89-8.671-8.67v-68.133c0-4.78,3.89-8.671,8.671-8.671
					h158.186c4.781,0,8.671,3.89,8.671,8.671v68.133C552.334,1396.7,548.445,1400.59,543.664,1400.59z M385.478,1321.222
					c-1.415,0-2.565,1.151-2.565,2.565v68.133c0,1.415,1.151,2.565,2.565,2.565h158.186c1.414,0,2.565-1.151,2.565-2.565v-68.133
					c0-1.415-1.151-2.565-2.565-2.565H385.478z"/>
				<path style="fill:#FFFFFF;" d="M585.224,1292.222H344.065c-1.303,0-2.463-0.827-2.887-2.06c-0.423-1.232-0.017-2.599,1.01-3.4
					l51.895-40.448c0.537-0.417,1.197-0.645,1.877-0.645h137.369c0.68,0,1.34,0.227,1.877,0.645l51.895,40.448
					c1.028,0.8,1.434,2.167,1.01,3.4C587.687,1291.395,586.527,1292.222,585.224,1292.222z M352.947,1286.116h223.394
					l-44.062-34.342H397.01L352.947,1286.116z"/>
				<path style="fill:#FFFFFF;" d="M464.645,1292.222c-1.686,0-3.053-1.367-3.053-3.053v-40.176c0-1.686,1.367-3.053,3.053-3.053
					c1.686,0,3.053,1.367,3.053,3.053v40.176C467.697,1290.855,466.33,1292.222,464.645,1292.222z"/>
				<g>
					<path style="fill:#FFFFFF;" d="M525.235,1292.222c-1.081,0-2.127-0.574-2.682-1.589l-21.965-40.175
						c-0.809-1.479-0.265-3.335,1.214-4.143c1.479-0.808,3.334-0.265,4.143,1.214l21.965,40.176
						c0.809,1.479,0.265,3.333-1.214,4.142C526.232,1292.101,525.73,1292.222,525.235,1292.222z"/>
					<path style="fill:#FFFFFF;" d="M404.054,1292.222c-0.495,0-0.996-0.121-1.461-0.374c-1.479-0.809-2.023-2.664-1.214-4.142
						l21.965-40.176c0.809-1.479,2.665-2.021,4.143-1.214c1.479,0.808,2.023,2.663,1.214,4.143l-21.965,40.175
						C406.181,1291.648,405.134,1292.222,404.054,1292.222z"/>
				</g>
				<path style="fill:#FFFFFF;" d="M373.373,1310.538c-18.615,0-33.198-9.386-33.198-21.368c0-1.686,1.367-3.053,3.053-3.053
					c1.686,0,3.053,1.367,3.053,3.053c0,8.274,12.407,15.263,27.092,15.263c14.686,0,27.092-6.989,27.092-15.263
					c0-1.686,1.367-3.053,3.053-3.053c1.686,0,3.053,1.367,3.053,3.053C406.571,1301.152,391.989,1310.538,373.373,1310.538z"/>
				<path style="fill:#FFFFFF;" d="M434.426,1310.538c-18.615,0-33.198-9.386-33.198-21.368c0-1.686,1.367-3.053,3.053-3.053
					c1.686,0,3.053,1.367,3.053,3.053c0,8.274,12.407,15.263,27.092,15.263c14.686,0,27.092-6.989,27.092-15.263
					c0-1.686,1.367-3.053,3.053-3.053c1.686,0,3.053,1.367,3.053,3.053C467.623,1301.152,453.041,1310.538,434.426,1310.538z"/>
				<path style="fill:#FFFFFF;" d="M495.479,1310.538c-18.615,0-33.197-9.386-33.197-21.368c0-1.686,1.367-3.053,3.052-3.053
					c1.686,0,3.053,1.367,3.053,3.053c0,8.274,12.406,15.263,27.092,15.263c14.686,0,27.092-6.989,27.092-15.263
					c0-1.686,1.367-3.053,3.053-3.053s3.053,1.367,3.053,3.053C528.676,1301.152,514.094,1310.538,495.479,1310.538z"/>
				<path style="fill:#FFFFFF;" d="M556.532,1310.538c-18.615,0-33.198-9.386-33.198-21.368c0-1.686,1.367-3.053,3.053-3.053
					s3.053,1.367,3.053,3.053c0,8.274,12.406,15.263,27.092,15.263c14.686,0,27.092-6.989,27.092-15.263
					c0-1.686,1.367-3.053,3.052-3.053s3.053,1.367,3.053,3.053C589.729,1301.152,575.147,1310.538,556.532,1310.538z"/>
			</g>
		</g>
		<g>
			
				<linearGradient id="SVGID_00000016055824490537741700000007408405450212117687_" gradientUnits="userSpaceOnUse" x1="1539.2329" y1="1204.068" x2="1706.8694" y2="1204.068">
				<stop  offset="0" style="stop-color:#2B3582"/>
				<stop  offset="1" style="stop-color:#150E42"/>
			</linearGradient>
			<path style="fill:url(#SVGID_00000016055824490537741700000007408405450212117687_);" d="M1543.4,1275.111
				c-2.225,0-4.063-1.768-4.132-4.008c-0.039-1.26-0.853-31.228,8.118-63.22c12.12-43.218,36.451-68.836,70.362-74.084
				c16.861-2.61,31.862,1.385,44.585,11.872c40.53,33.402,44.388,121.414,44.532,125.144c0.089,2.282-1.69,4.204-3.972,4.293
				c-2.31,0.06-4.204-1.69-4.294-3.972c-0.035-0.877-3.861-88.051-41.535-119.087c-10.823-8.915-23.621-12.306-38.052-10.074
				c-74.254,11.492-71.513,127.7-71.476,128.872c0.07,2.284-1.723,4.192-4.006,4.263
				C1543.488,1275.11,1543.444,1275.111,1543.4,1275.111z"/>
			<path style="fill:#7D97F4;" d="M1395.394,1494.251l60.376-250.924l226.812-3.749L1755.687,1517h-340.653
				C1402.916,1517,1393.626,1506.239,1395.394,1494.251z"/>
			<path style="fill:#91B3FA;" d="M1726.633,1243.326l-44.05-3.749L1755.687,1517h43.731c8.866,0,15.493-8.148,13.685-16.828
				L1726.633,1243.326z"/>
			
				<linearGradient id="SVGID_00000140732004982167786820000013742266332364923319_" gradientUnits="userSpaceOnUse" x1="1490.496" y1="1203.1313" x2="1658.1332" y2="1203.1313">
				<stop  offset="0" style="stop-color:#2B3582"/>
				<stop  offset="1" style="stop-color:#150E42"/>
			</linearGradient>
			<path style="fill:url(#SVGID_00000140732004982167786820000013742266332364923319_);" d="M1494.663,1274.174
				c-2.225,0-4.063-1.768-4.132-4.008c-0.039-1.26-0.853-31.228,8.119-63.22c12.12-43.218,36.451-68.836,70.362-74.084
				c16.861-2.608,31.86,1.385,44.585,11.871c40.53,33.401,44.388,121.414,44.533,125.145c0.089,2.282-1.69,4.204-3.972,4.293
				c-2.247,0.068-4.204-1.688-4.294-3.972c-0.035-0.877-3.862-88.051-41.535-119.087c-10.824-8.918-23.625-12.309-38.052-10.074
				c-74.254,11.492-71.513,127.7-71.477,128.872c0.07,2.284-1.723,4.192-4.006,4.263
				C1494.75,1274.173,1494.707,1274.174,1494.663,1274.174z"/>
		</g>
		<g>
			<path style="fill:#7D97F4;" d="M650.552,567.875l2.615,5.246l0.028,0.057c0.349,0.699,0.064,1.549-0.635,1.897
				c-0.699,0.349-1.549,0.064-1.898-0.635c-0.029-0.06-0.057-0.127-0.078-0.188l-1.869-5.672c-0.17-0.516,0.11-1.072,0.627-1.243
				c0.471-0.155,0.975,0.064,1.189,0.496L650.552,567.875z"/>
			<path style="fill:#7D97F4;" d="M660.005,584.875l3.226,4.825l0.058,0.087c0.78,1.167,0.467,2.746-0.7,3.526
				c-1.167,0.78-2.746,0.466-3.526-0.701c-0.046-0.069-0.09-0.143-0.129-0.215l-2.832-5.302c-0.584-1.093-0.171-2.454,0.923-3.038
				c1.025-0.547,2.283-0.219,2.918,0.724L660.005,584.875z"/>
			<path style="fill:#7D97F4;" d="M671.447,600.416l3.794,4.356l0.083,0.095c1.224,1.405,1.077,3.537-0.328,4.761
				c-1.405,1.224-3.537,1.077-4.761-0.328c-0.056-0.064-0.114-0.136-0.164-0.204l-3.598-4.842c-1.034-1.392-0.744-3.359,0.648-4.394
				c1.323-0.984,3.166-0.77,4.233,0.448L671.447,600.416z"/>
			<path style="fill:#7D97F4;" d="M684.643,614.407l4.255,3.89l0.099,0.091c1.62,1.481,1.732,3.995,0.251,5.615
				c-1.481,1.62-3.995,1.733-5.614,0.252c-0.052-0.048-0.111-0.105-0.16-0.155l-4.223-4.318c-1.469-1.503-1.443-3.912,0.06-5.381
				c1.449-1.417,3.741-1.442,5.22-0.095L684.643,614.407z"/>
			<path style="fill:#7D97F4;" d="M699.277,626.851l4.623,3.443l0.108,0.081c1.939,1.444,2.341,4.186,0.897,6.126
				c-1.444,1.939-4.186,2.34-6.125,0.897c-0.035-0.026-0.083-0.064-0.117-0.09l-4.72-3.769c-1.845-1.473-2.147-4.164-0.673-6.009
				c1.442-1.805,4.048-2.133,5.888-0.766L699.277,626.851z"/>
			<path style="fill:#7D97F4;" d="M715.082,637.776l4.922,3.019l0.113,0.07c2.177,1.335,2.859,4.182,1.524,6.359
				c-1.335,2.177-4.182,2.859-6.359,1.523c-0.007-0.004-0.037-0.023-0.044-0.027l-5.115-3.217c-2.146-1.349-2.791-4.183-1.442-6.329
				c1.34-2.131,4.143-2.782,6.283-1.471L715.082,637.776z"/>
			<path style="fill:#7D97F4;" d="M731.803,647.283l5.182,2.546l0.114,0.056c2.346,1.153,3.314,3.99,2.161,6.336
				c-1.153,2.347-3.99,3.314-6.336,2.162c-0.008-0.004-0.039-0.02-0.048-0.024l-5.381-2.719c-2.317-1.171-3.246-3.998-2.075-6.315
				c1.162-2.3,3.957-3.233,6.265-2.1L731.803,647.283z"/>
			<path style="fill:#7D97F4;" d="M749.286,655.333l5.379,2.136l0.114,0.046c2.397,0.951,3.568,3.666,2.617,6.062
				c-0.947,2.384-3.64,3.555-6.027,2.631l-5.625-2.18c-2.417-0.937-3.617-3.656-2.68-6.073c0.937-2.417,3.656-3.617,6.073-2.68
				l0.036,0.014L749.286,655.333z"/>
			<path style="fill:#7D97F4;" d="M767.421,661.925l5.546,1.71l0.093,0.029c2.422,0.746,3.78,3.315,3.034,5.737
				c-0.743,2.409-3.29,3.766-5.701,3.045l-5.747-1.72c-2.441-0.731-3.827-3.302-3.097-5.743c0.731-2.441,3.302-3.828,5.742-3.097
				l0.036,0.011L767.421,661.925z"/>
			<path style="fill:#7D97F4;" d="M786.031,667.281l5.653,1.393l0.078,0.019c2.339,0.576,3.769,2.94,3.192,5.279
				c-0.567,2.303-2.872,3.722-5.175,3.217l-5.841-1.288c-2.392-0.528-3.904-2.894-3.377-5.287c0.527-2.393,2.895-3.905,5.287-3.377
				c0.029,0.006,0.057,0.013,0.086,0.02L786.031,667.281z"/>
			<path style="fill:#7D97F4;" d="M804.981,671.545l5.734,1.103l0.061,0.012c2.223,0.427,3.678,2.575,3.25,4.798
				c-0.418,2.176-2.495,3.616-4.667,3.273l-5.891-0.936c-2.288-0.364-3.848-2.513-3.484-4.801c0.364-2.288,2.513-3.848,4.801-3.484
				c0.039,0.006,0.077,0.013,0.115,0.02L804.981,671.545z"/>
			<path style="fill:#7D97F4;" d="M824.165,674.963l5.793,0.87l0.044,0.007c2.019,0.304,3.411,2.187,3.108,4.206
				c-0.295,1.967-2.097,3.337-4.057,3.127l-5.912-0.643c-2.097-0.228-3.612-2.113-3.384-4.209c0.228-2.097,2.113-3.612,4.209-3.383
				c0.047,0.005,0.093,0.011,0.139,0.017L824.165,674.963z"/>
			<path style="fill:#7D97F4;" d="M843.522,677.667l5.829,0.716l0.029,0.003c1.753,0.215,3,1.811,2.785,3.564
				c-0.207,1.69-1.707,2.908-3.384,2.802l-5.918-0.389c-1.855-0.122-3.26-1.724-3.138-3.579c0.122-1.855,1.724-3.26,3.579-3.138
				c0.06,0.004,0.12,0.01,0.179,0.017L843.522,677.667z"/>
			<path style="fill:#7D97F4;" d="M862.997,679.885l5.862,0.618l0.016,0.002c1.418,0.149,2.447,1.42,2.297,2.838
				c-0.143,1.353-1.315,2.351-2.653,2.31l-5.924-0.196c-1.543-0.051-2.752-1.343-2.701-2.886c0.051-1.543,1.343-2.752,2.886-2.701
				c0.065,0.002,0.13,0.007,0.193,0.013L862.997,679.885z"/>
			<path style="fill:#7D97F4;" d="M882.549,681.845l5.88,0.574c0.996,0.094,1.726,0.978,1.632,1.973
				c-0.089,0.94-0.895,1.644-1.822,1.64l-5.919-0.061c-1.142-0.012-2.059-0.948-2.047-2.09c0.012-1.142,0.947-2.058,2.09-2.047
				C882.422,681.835,882.491,681.84,882.549,681.845z"/>
			<path style="fill:#7D97F4;" d="M902.144,683.782l2.841,0.289c0.541,0.055,0.935,0.538,0.881,1.08
				c-0.051,0.505-0.48,0.882-0.976,0.886l-2.856,0.012c-0.628,0.003-1.138-0.504-1.141-1.131c-0.003-0.628,0.504-1.138,1.131-1.141
				C902.064,683.777,902.105,683.779,902.144,683.782z"/>
		</g>
		<g>
			<path style="fill:#7D97F4;" d="M656.499,892.635l5.907-0.087c0.691-0.01,1.259,0.542,1.269,1.232
				c0.01,0.691-0.541,1.259-1.232,1.269c-0.037,0-0.076,0-0.112-0.003l-5.891-0.445c-0.542-0.041-0.949-0.513-0.908-1.056
				C655.57,893.035,655.996,892.645,656.499,892.635z"/>
			<path style="fill:#7D97F4;" d="M676.185,892.421l5.905-0.021c1.102-0.004,1.998,0.886,2.002,1.988
				c0.004,1.102-0.886,1.998-1.988,2.002c-0.043,0-0.092-0.002-0.135-0.004l-5.893-0.378c-0.99-0.063-1.741-0.917-1.677-1.907
				C674.46,893.154,675.25,892.426,676.185,892.421z"/>
			<path style="fill:#7D97F4;" d="M695.866,892.393l5.903,0.036c1.415,0.008,2.556,1.163,2.547,2.578
				c-0.008,1.416-1.163,2.556-2.578,2.548c-0.039,0-0.086-0.002-0.125-0.004l-5.894-0.322c-1.334-0.073-2.357-1.214-2.284-2.548
				C693.506,893.388,694.586,892.388,695.866,892.393z"/>
			<path style="fill:#7D97F4;" d="M715.542,892.512l5.902,0.061c1.665,0.017,3,1.381,2.983,3.045c-0.017,1.665-1.381,3-3.045,2.983
				c-0.036,0-0.085-0.002-0.121-0.004l-5.895-0.297c-1.598-0.08-2.828-1.441-2.747-3.038
				C712.698,893.706,713.998,892.499,715.542,892.512z"/>
			<path style="fill:#7D97F4;" d="M735.215,892.75l5.902,0.076c1.854,0.024,3.338,1.546,3.314,3.4
				c-0.024,1.854-1.546,3.338-3.4,3.314c-0.034-0.001-0.083-0.002-0.117-0.003l-5.896-0.282c-1.795-0.086-3.181-1.611-3.095-3.406
				C732.006,894.094,733.472,892.73,735.215,892.75z"/>
			<path style="fill:#7D97F4;" d="M754.885,893.077l5.901,0.117c1.98,0.039,3.553,1.676,3.514,3.656
				c-0.039,1.98-1.676,3.553-3.656,3.514c-0.019,0-0.056-0.002-0.076-0.002l-5.897-0.241c-1.944-0.079-3.456-1.72-3.376-3.664
				C751.374,894.538,752.975,893.041,754.885,893.077z"/>
			<path style="fill:#7D97F4;" d="M774.553,893.466l5.899,0.155c2.073,0.054,3.709,1.779,3.655,3.852
				c-0.054,2.073-1.779,3.709-3.852,3.655l-0.031-0.001l-5.898-0.203c-2.059-0.071-3.671-1.797-3.6-3.856
				C770.798,895.019,772.509,893.413,774.553,893.466z"/>
			<path style="fill:#7D97F4;" d="M794.218,893.99l5.899,0.159c2.111,0.056,3.776,1.813,3.72,3.925
				c-0.057,2.111-1.814,3.776-3.925,3.72l-0.027-0.001l-5.898-0.199c-2.099-0.071-3.743-1.83-3.672-3.929
				C790.386,895.573,792.131,893.935,794.218,893.99z"/>
			<path style="fill:#7D97F4;" d="M813.88,894.555l5.897,0.221c2.093,0.078,3.725,1.838,3.647,3.931
				c-0.078,2.073-1.81,3.695-3.877,3.648l-5.9-0.136c-2.117-0.049-3.794-1.805-3.745-3.922c0.049-2.117,1.805-3.793,3.922-3.744
				C813.837,894.553,813.869,894.554,813.88,894.555z"/>
			<path style="fill:#7D97F4;" d="M833.535,895.379l5.895,0.307c1.918,0.1,3.393,1.736,3.293,3.654
				c-0.097,1.865-1.655,3.311-3.504,3.297l-5.903-0.051c-1.992-0.017-3.592-1.645-3.575-3.637c0.017-1.992,1.646-3.593,3.637-3.575
				C833.427,895.375,833.488,895.377,833.535,895.379z"/>
			<path style="fill:#7D97F4;" d="M853.18,896.553c1.964,0.119,3.927,0.285,5.891,0.442c1.523,0.122,2.66,1.456,2.538,2.979
				c-0.114,1.427-1.304,2.514-2.705,2.546c-1.969,0.038-3.939,0.086-5.907,0.085c-1.673-0.001-3.029-1.357-3.028-3.03
				c0-1.673,1.357-3.029,3.03-3.028C853.056,896.548,853.123,896.549,853.18,896.553z"/>
			<path style="fill:#7D97F4;" d="M872.81,898.193l5.885,0.613c0.854,0.089,1.473,0.853,1.384,1.706
				c-0.081,0.777-0.721,1.359-1.478,1.391l-5.912,0.255c-1.098,0.047-2.026-0.804-2.073-1.901c-0.047-1.097,0.804-2.026,1.901-2.073
				C872.613,898.18,872.718,898.183,872.81,898.193z"/>
		</g>
		<g>
			<path style="fill:#7D97F4;" d="M662.757,1334.808l2.353-5.448c0.281-0.651,1.037-0.951,1.689-0.67
				c0.651,0.281,0.951,1.037,0.67,1.689c-0.017,0.04-0.036,0.078-0.057,0.115l-0.012,0.021l-2.871,5.147l-0.009,0.016
				c-0.265,0.474-0.864,0.645-1.339,0.38C662.737,1335.81,662.561,1335.265,662.757,1334.808z"/>
			<path style="fill:#7D97F4;" d="M671.044,1316.842l2.724-5.28c0.544-1.054,1.839-1.468,2.894-0.924
				c1.054,0.544,1.468,1.839,0.924,2.894c-0.026,0.051-0.054,0.1-0.084,0.148l-0.022,0.035l-3.108,4.981l-0.018,0.029
				c-0.557,0.893-1.733,1.165-2.626,0.608C670.882,1318.804,670.597,1317.714,671.044,1316.842z"/>
			<path style="fill:#7D97F4;" d="M680.556,1299.466l3.07-5.094c0.803-1.332,2.534-1.762,3.866-0.959s1.762,2.534,0.958,3.866
				c-0.03,0.05-0.062,0.099-0.095,0.147l-0.031,0.045l-3.341,4.809l-0.026,0.038c-0.827,1.19-2.462,1.484-3.652,0.657
				C680.165,1302.183,679.852,1300.64,680.556,1299.466z"/>
			<path style="fill:#7D97F4;" d="M691.19,1282.726l3.384-4.901c1.052-1.524,3.14-1.906,4.663-0.854
				c1.524,1.052,1.906,3.14,0.854,4.663c-0.033,0.047-0.066,0.094-0.101,0.139l-0.04,0.052l-3.578,4.622l-0.034,0.044
				c-1.078,1.393-3.082,1.648-4.475,0.57C690.518,1286.02,690.238,1284.11,691.19,1282.726z"/>
			<path style="fill:#7D97F4;" d="M702.858,1266.661l3.691-4.682c1.285-1.63,3.647-1.909,5.276-0.624
				c1.629,1.285,1.909,3.647,0.624,5.276c-0.027,0.035-0.055,0.069-0.084,0.103l-0.049,0.058l-3.792,4.44l-0.04,0.047
				c-1.306,1.529-3.603,1.709-5.132,0.404C701.862,1270.409,701.658,1268.188,702.858,1266.661z"/>
			<path style="fill:#7D97F4;" d="M715.477,1251.301l3.982-4.446c1.504-1.679,4.085-1.821,5.765-0.317
				c1.679,1.505,1.821,4.086,0.317,5.765c-0.017,0.019-0.034,0.038-0.052,0.057l-0.059,0.063l-3.995,4.253l-0.046,0.049
				c-1.517,1.615-4.056,1.694-5.671,0.177C714.128,1255.407,714.03,1252.918,715.477,1251.301z"/>
			<path style="fill:#7D97F4;" d="M729.033,1236.737l4.222-4.225c1.685-1.686,4.417-1.687,6.103-0.002
				c1.686,1.685,1.687,4.417,0.002,6.104c-0.019,0.019-0.039,0.038-0.058,0.057l-0.065,0.062l-4.22,4.027l-0.051,0.049
				c-1.696,1.618-4.383,1.556-6.002-0.14C727.37,1240.998,727.411,1238.362,729.033,1236.737z"/>
			<path style="fill:#7D97F4;" d="M743.41,1222.963l4.479-3.958c1.84-1.626,4.649-1.453,6.275,0.387
				c1.626,1.839,1.453,4.649-0.387,6.274l-0.026,0.024l-0.054,0.047l-4.401,3.829l-0.054,0.047
				c-1.843,1.603-4.636,1.408-6.239-0.434C741.407,1227.345,741.593,1224.569,743.41,1222.963z"/>
			<path style="fill:#7D97F4;" d="M758.585,1210.054l4.687-3.711c1.958-1.551,4.803-1.221,6.354,0.737
				c1.551,1.958,1.221,4.803-0.738,6.354l-0.028,0.022l-0.057,0.045l-4.601,3.585l-0.058,0.045c-1.96,1.527-4.787,1.177-6.315-0.783
				C756.309,1214.396,756.651,1211.587,758.585,1210.054z"/>
			<path style="fill:#7D97F4;" d="M774.474,1198.029l4.908-3.414c2.036-1.416,4.834-0.914,6.25,1.122
				c1.409,2.025,0.919,4.803-1.089,6.227l-0.062,0.044l-4.76,3.371l-0.059,0.042c-2.035,1.442-4.853,0.961-6.295-1.075
				c-1.441-2.035-0.96-4.853,1.075-6.295L774.474,1198.029z"/>
			<path style="fill:#7D97F4;" d="M791.042,1186.962l5.084-3.143c2.07-1.28,4.786-0.639,6.065,1.431
				c1.273,2.059,0.646,4.756-1.397,6.044l-0.063,0.039l-4.935,3.11l-0.061,0.038c-2.071,1.305-4.808,0.684-6.112-1.387
				c-1.305-2.071-0.684-4.807,1.387-6.112L791.042,1186.962z"/>
			<path style="fill:#7D97F4;" d="M808.224,1176.893l5.268-2.815c2.036-1.088,4.569-0.32,5.657,1.716
				c1.07,2.003,0.344,4.486-1.617,5.602l-0.066,0.037l-5.074,2.881l-0.06,0.034c-2.044,1.161-4.643,0.444-5.803-1.6
				c-1.161-2.045-0.445-4.643,1.6-5.803C808.155,1176.931,808.198,1176.907,808.224,1176.893z"/>
			<path style="fill:#7D97F4;" d="M825.953,1167.851l5.428-2.483c1.952-0.893,4.259-0.035,5.153,1.918
				c0.871,1.904,0.077,4.143-1.773,5.083l-0.066,0.034l-5.209,2.636l-0.058,0.029c-1.974,0.999-4.384,0.208-5.382-1.765
				c-0.999-1.974-0.208-4.384,1.766-5.382C825.853,1167.898,825.91,1167.87,825.953,1167.851z"/>
			<path style="fill:#7D97F4;" d="M844.201,1159.95l5.553-2.166c1.786-0.696,3.798,0.186,4.495,1.972
				c0.678,1.738-0.14,3.69-1.829,4.436l-0.062,0.027l-5.348,2.352l-0.054,0.023c-1.819,0.8-3.941-0.026-4.741-1.845
				c-0.8-1.819,0.026-3.941,1.845-4.741C844.102,1159.99,844.158,1159.967,844.201,1159.95z"/>
			<path style="fill:#7D97F4;" d="M862.872,1153.186l5.673-1.801c1.533-0.486,3.171,0.362,3.657,1.895
				c0.468,1.476-0.3,3.048-1.725,3.597l-0.056,0.022l-5.462,2.094l-0.048,0.018c-1.592,0.611-3.378-0.185-3.989-1.777
				c-0.611-1.592,0.185-3.378,1.778-3.989C862.754,1153.225,862.818,1153.204,862.872,1153.186z"/>
			<path style="fill:#7D97F4;" d="M881.909,1147.634l5.77-1.423c1.188-0.293,2.389,0.432,2.682,1.621
				c0.279,1.131-0.365,2.274-1.453,2.634l-0.046,0.015l-5.571,1.826l-0.039,0.013c-1.28,0.42-2.658-0.278-3.077-1.558
				c-0.42-1.28,0.278-2.658,1.558-3.077C881.79,1147.667,881.853,1147.649,881.909,1147.634z"/>
			<path style="fill:#7D97F4;" d="M901.242,1143.369l5.85-0.996c0.711-0.121,1.386,0.357,1.507,1.068
				c0.113,0.664-0.296,1.296-0.929,1.475l-0.029,0.008l-5.665,1.586l-0.027,0.007c-0.859,0.241-1.751-0.261-1.992-1.12
				c-0.241-0.859,0.261-1.751,1.12-1.992C901.132,1143.391,901.188,1143.379,901.242,1143.369z"/>
		</g>
	</g>
</g>
</svg>
